<svg xmlns="http://www.w3.org/2000/svg" xmlns:xlink="http://www.w3.org/1999/xlink" viewBox="0 0 320 320" width="200" height="200"><style>.nike{transform:matrix(0.466738,-0.450723,0.450723,0.466738,156.501,160.494)}.nike-circle{transform:matrix(8.779999732971191,0,0,8.779999732971191,153.18263244628906,166.1223602294922)}</style><g class="nike-circle"><g transform="matrix(1,0,0,1,0.7839999794960022,-0.7160000205039978)"><path fill="rgb(0,202,113)" d="M0-5.033999919891357c2.7782645225524902.0 5.033999919891357 2.255735397338867 5.033999919891357 5.033999919891357.0 2.7782645225524902-2.255735397338867 5.033999919891357-5.033999919891357 5.033999919891357-2.7782645225524902.0-5.033999919891357-2.255735397338867-5.033999919891357-5.033999919891357.0-2.7782645225524902 2.255735397338867-5.033999919891357 5.033999919891357-5.033999919891357z"/></g></g><g transform="matrix(0.10777443647384644,-0.1040765643119812,0.1040765643119812,0.10777443647384644,159.43211364746094,161.02783203125)" class="nike"><g transform="matrix(1,0,0,1,0,0)"><path stroke-linecap="round" stroke-linejoin="miter" fill-opacity="0" stroke-miterlimit="5" stroke="rgb(255,255,255)" stroke-opacity="1" stroke-width="8" d="M-17-16c0 0 0 26.5.0 26.5.0.0 58 0 58 0"/></g></g></svg>
