<?xml version="1.0" encoding="UTF-8"?>
<svg width="26px" height="40px" viewBox="0 0 26 40" version="1.1" xmlns="http://www.w3.org/2000/svg" xmlns:xlink="http://www.w3.org/1999/xlink">
    <!-- Generator: Sketch 53.2 (72643) - https://sketchapp.com -->
    <title>Atom / Map / Web / Marker</title>
    <desc>Created with Sketch.</desc>
    <defs>
        <path d="M2.04363583,21 C0.749992968,18.979399 0,16.5772846 0,14 C0,6.82029825 5.82029825,1 13,1 C20.1797017,1 26,6.82029825 26,14 C26,16.5772846 25.250007,18.979399 23.9563642,21 L24,21 L13,40 L2,21 L2.04363583,21 Z" id="path-1"></path>
        <filter x="-65.4%" y="-23.1%" width="230.8%" height="192.3%" filterUnits="objectBoundingBox" id="filter-3">
            <feOffset dx="0" dy="10" in="SourceAlpha" result="shadowOffsetOuter1"></feOffset>
            <feGaussianBlur stdDeviation="4" in="shadowOffsetOuter1" result="shadowBlurOuter1"></feGaussianBlur>
            <feColorMatrix values="0 0 0 0 0   0 0 0 0 0   0 0 0 0 0  0 0 0 0.16 0" type="matrix" in="shadowBlurOuter1"></feColorMatrix>
        </filter>
        <path d="M2.73684211,6.95238095 L2.73684211,11.8412698 L4.84210526,11.8412698 L4.84210526,6.95238095 L2.73684211,6.95238095 Z M6.94736842,6.95238095 L6.94736842,11.8412698 L9.05263158,11.8412698 L9.05263158,6.95238095 L6.94736842,6.95238095 Z M1.33333333,15.3333333 L14.6666667,15.3333333 L14.6666667,13.2380952 L1.33333333,13.2380952 L1.33333333,15.3333333 Z M11.1578947,6.95238095 L11.1578947,11.8412698 L13.2631579,11.8412698 L13.2631579,6.95238095 L11.1578947,6.95238095 Z M8,0.666666667 L1.33333333,4.15873016 L1.33333333,5.55555556 L14.6666667,5.55555556 L14.6666667,4.15873016 L8,0.666666667 Z" id="path-4"></path>
    </defs>
    <g id="Atom-/-Map-/-Web-/-Marker" stroke="none" stroke-width="1" fill="none" fill-rule="evenodd">
        <mask id="mask-2" fill="white">
            <use xlink:href="#path-1"></use>
        </mask>
        <g id="Combined-Shape" fill="black" fill-opacity="1">
            <use filter="url(#filter-3)" xlink:href="#path-1"></use>
        </g>
        <g id="2-Colors/1-Action/1-Primary" mask="url(#mask-2)" fill="#00569C">
            <g transform="translate(0.000000, 1.000000)" id="Swatch">
                <rect x="0" y="0" width="26" height="39"></rect>
            </g>
        </g>
        <g id="3-Icons/1-Material/account_balance" mask="url(#mask-2)">
            <g transform="translate(5.000000, 6.000000)">
                <mask id="mask-5" fill="white">
                    <use xlink:href="#path-4"></use>
                </mask>
                <g id="Mask" stroke="none" fill="none" fill-rule="nonzero"></g>
                <g id="2-Colors/3-Neutrals/1-Light/1-White" stroke="none" fill="none" mask="url(#mask-5)">
                    <rect fill="#FFFFFF" x="0" y="0" width="16" height="16"></rect>
                    <rect id="Swatch" fill="#FFFFFF" fill-rule="evenodd" x="0" y="0" width="16" height="16"></rect>
                </g>
            </g>
        </g>
    </g>
</svg>