<?xml version="1.0" encoding="UTF-8"?>
<svg width="404px" height="199px" viewBox="0 0 404 199" version="1.1" xmlns="http://www.w3.org/2000/svg" xmlns:xlink="http://www.w3.org/1999/xlink">
    <title>BC06FF18-F47E-4522-B9D8-639CCBC26C0E@1.00x</title>
    <defs>
        <path d="M157.46376,0.272916011 C244.29175,0.272916011 314.679343,2.94262512 314.679343,6.23597125 C314.679343,9.52931738 244.29175,12.1990265 157.46376,12.1990265 C70.6361698,12.1990265 0.24817801,9.52931738 0.24817801,6.23597125" id="path-1"></path>
        <path d="M6.83207727,18.5650717 C5.20335921,18.9896078 -0.967176038,18.7410307 0.211470008,15.6962616 C1.52178606,12.3111455 5.0198192,15.2701296 6.52045826,17.1466267 C5.95148424,14.1529296 5.87367923,11.1033724 5.88205823,9.47146238 C4.77243919,8.13880232 2.4291121,-0.329574013 7.04514328,0.0901740036 C13.0939835,0.639996025 7.73501431,8.65550734 6.34170625,9.56562638 C6.34250425,11.5187315 6.47257826,15.3886326 7.35676229,18.7466167 C7.5446913,16.6127647 9.67295738,10.5435754 12.5014685,12.6838115 C16.6043857,15.7884306 8.75366135,19.5358388 7.5634443,19.4712008 C7.93730732,20.6965298 8.42129433,21.8256999 9.05291136,22.7282379 C9.50817038,23.3782089 10.0113094,24.131122 10.5324034,24.950269 L10.5599344,24.980593 C10.8232744,22.7342229 12.9200195,16.9638847 15.6886806,19.0590338 C19.5194798,21.9573699 12.9315905,25.415902 11.0706544,25.810513 C12.2245625,27.6878081 13.4139815,29.8332312 14.3312826,31.9004503 C14.4605586,29.8715352 18.4417807,25.72393 20.0234168,28.0955861 C20.9052068,29.4182712 16.2389016,33.7278703 14.7007566,32.7618913 C15.5781576,34.9053194 16.1060346,36.9086985 15.9232926,38.3702355 C15.8558616,38.9092845 15.7573086,39.5448916 15.6435936,40.2335656 C16.7336617,39.0281866 20.6717918,34.9859174 21.8448519,38.1140775 C22.8176139,40.7079766 19.5677588,42.2126057 18.2019817,42.2126057 C17.1326617,42.2126057 15.9991026,41.2007416 15.5554146,40.7594476 C15.4923726,41.1325126 15.4265376,41.5163506 15.3587076,41.9077697 C14.8088856,45.0993708 14.1493386,48.9413419 14.3432526,51.25235 C15.2733216,49.447673 19.4285078,41.9341037 21.8448519,46.7659939 C23.0837469,49.243784 19.5677588,51.319781 18.2019817,51.7754391 C17.0811907,52.1489031 15.0766146,51.8133441 14.3915316,51.6804771 C14.4298356,51.9406251 14.4789126,52.1816211 14.5467426,52.3863081 C15.4373106,55.0564162 17.2348057,57.7692173 17.2527607,57.7967483 C17.3225857,57.9008873 17.2942567,58.0425323 17.1897187,58.1123573 C17.1506167,58.1382923 17.1071257,58.1502623 17.0636347,58.1502623 C16.9902187,58.1502623 16.9176007,58.1147513 16.8741097,58.0489163 C16.8581497,58.0257743 15.5222976,56.0068342 14.5650966,53.7181701 C13.4925845,53.5829091 9.36852037,53.0207181 8.18349033,52.2306981 C6.81731427,51.319781 4.37184317,48.3272809 6.36205525,47.2216519 C9.44233538,45.5103408 12.6722405,50.058941 14.0866956,52.4246121 C13.5600155,50.659037 14.0264466,47.1266899 14.5742736,43.8106007 C13.4714375,44.1409728 9.88722039,43.5001787 8.63874934,42.6678647 C7.27297229,41.7569477 4.9180742,39.3972616 6.36205525,38.1140775 C9.9821824,34.8961424 13.8069965,41.7126587 14.6508816,43.3481597 C14.7378636,42.8322527 14.8252446,42.3231287 14.9102316,41.8303637 C15.1380606,40.5080776 15.3531216,39.2592076 15.4712256,38.3135775 C15.6411996,36.9557805 15.1356666,35.0038724 14.2335276,32.8145593 C13.5145295,33.0427873 11.0830234,33.7143043 8.41131933,33.3324613 C5.22370821,32.8776013 3.60735914,30.3954222 4.76844919,29.2343322 C6.74429727,27.2580851 12.5836625,31.3518252 14.0922816,32.4686263 C13.1733845,30.3144252 11.8854125,27.9523451 10.4725534,25.699192 C8.61480934,26.128915 1.21415705,25.971709 2.21564709,23.0326749 C3.21633913,20.0964338 7.00524328,22.0714839 9.23126437,23.7935679 C9.04812336,23.5226469 8.86458335,23.2529229 8.67984634,22.9891839 C7.83755731,21.7861989 7.24703729,20.2221188 6.83207727,18.5650717" id="path-3"></path>
        <linearGradient x1="41.4714839%" y1="31.858627%" x2="54.0333588%" y2="56.6816784%" id="linearGradient-5">
            <stop stop-color="#618ABA" offset="0%"></stop>
            <stop stop-color="#39609D" offset="100%"></stop>
        </linearGradient>
        <path d="M2.06841608,28.0129931 C5.89083623,26.4840251 6.82529427,32.3345623 7.02678928,34.2529544 C7.86907831,31.4547672 8.22658233,28.0508981 7.84593631,25.278646 C7.26419429,25.263883 5.0094452,25.157749 3.43459214,24.370123 C1.61275806,23.4596049 0.489573019,19.8119468 2.06841608,19.3610768 C4.72056919,18.6033757 7.05631528,23.2022499 7.76613631,24.768724 C7.70389231,24.415609 7.6296783,24.073267 7.5407013,23.7472839 C6.95935828,21.6154269 6.53841326,18.8695087 6.35646925,16.1702736 C5.63707222,16.1571066 3.63169814,16.0872816 2.5236751,15.7182066 C1.15749905,15.2625486 -1.15550405,11.6950895 0.702240028,11.1644194 C3.26222413,10.4330524 5.52734722,14.1054486 6.32016025,15.5805516 C6.16734325,12.7652075 6.28305325,10.0559974 6.76185327,8.20982433 C6.55716626,7.39865729 6.16694425,5.67777023 6.16694425,4.33353917 C6.16694425,2.5121041 8.28044733,-1.07331004 10.2650734,0.690669027 C13.8903876,3.91339216 8.45760334,7.67955331 7.15486828,8.50628134 C6.71477127,10.3245244 6.61741526,12.9491465 6.77502027,15.6723216 C7.5889803,13.6242545 10.8779374,6.25113325 14.8188606,9.79824339 C16.3326666,11.1604294 12.9974255,14.3520306 10.7207314,15.2625486 C8.90967035,15.9871326 7.36474229,16.1399496 6.80694027,16.1726676 C6.99008128,18.8244217 7.40703629,21.5260509 7.98000032,23.6271849 C8.08413932,24.00823 8.16753032,24.411619 8.23575933,24.828973 C9.09919536,23.0869389 13.1167265,15.6807006 17.5512127,18.9058178 C19.3925978,20.2448618 15.7293786,23.4596049 13.9079436,24.370123 C12.3442625,25.151764 9.16143936,25.192861 8.29082133,25.188871 C8.66907334,27.9503501 8.32752933,31.3306782 7.5071853,34.1651744 C8.84503235,32.1414463 12.7564295,26.9452691 15.7293786,30.2900862 C17.4937567,32.2747123 12.9272015,33.9564973 11.6312495,34.3886144 C10.4901094,34.7688614 8.04862832,34.8825764 7.27536629,34.9093094 C6.62778926,36.8652075 5.74639823,38.4883395 4.71897319,39.3449926 C4.67588119,39.3801046 4.62441018,39.3972616 4.57293918,39.3972616 C4.50790218,39.3972616 4.44286518,39.3697306 4.39777817,39.3158656 C4.31757917,39.2193076 4.33074617,39.0756676 4.42690518,38.9954685 C5.40804621,38.1779175 6.24834025,36.6289995 6.86758827,34.7572904 C6.27507325,34.5103094 4.55099418,33.7665733 3.43459214,33.0224383 C2.06841608,32.1115213 -0.0454860018,28.8588731 2.06841608,28.0129931" id="path-6"></path>
        <linearGradient x1="49.0969849%" y1="29.8639902%" x2="52.6733229%" y2="102.853074%" id="linearGradient-8">
            <stop stop-color="#E9B841" offset="0%"></stop>
            <stop stop-color="#EEA52D" offset="100%"></stop>
        </linearGradient>
        <path d="M7.4333703,20.4184268 C5.65383022,20.8824638 -1.10124004,20.6099468 0.187530007,17.2786957 C1.62393006,13.5743795 5.45034022,16.8122647 7.09422028,18.8655187 C6.47178026,15.5897286 6.38400025,12.2524925 6.39597025,10.4669674 C5.17902021,9.00822336 2.6174401,-0.25855201 7.6687803,0.200697008 C14.2881906,0.802389032 8.42289033,9.57400538 6.89871027,10.5695104 C6.89871027,12.7073525 7.04235028,16.9423387 8.00793032,20.6167298 C8.21541033,18.2813827 10.5415804,11.6400275 13.6378205,13.9821576 C18.1265707,17.3796427 9.53610038,21.4801659 8.23536033,21.4095429 C8.64234034,22.7505819 9.17301036,23.986285 9.86328039,24.97381 C10.3620304,25.685227 10.9126504,26.5091621 11.4832205,27.4057151 L11.5151405,27.4384331 C11.8024205,24.980194 14.0966706,18.6656197 17.1250807,20.9582738 C21.3185708,24.130723 14.1086406,27.9148391 12.0737405,28.3465571 C13.3345805,30.4010082 14.6353206,32.7483253 15.6408006,35.0110544 C15.7804506,32.7906193 20.1375308,28.2519941 21.8691909,30.8474892 C22.8347709,32.2950613 17.7275707,37.0108425 16.0437906,35.9538914 C17.0053807,38.2988145 17.5839307,40.4913196 17.3844307,42.0905117 C17.3086207,42.6806327 17.2008907,43.3764887 17.0772007,44.1298008 C18.2702107,42.8107067 22.5794109,38.3869935 23.8641909,41.8104137 C24.925531,44.6485008 21.3704408,46.2951738 19.8781808,46.2951738 C18.7051207,46.2951738 17.4642307,45.1883478 16.9814407,44.7055578 C16.9096207,45.1141338 16.8378007,45.5334828 16.7659807,45.9620088 C16.1634906,49.454456 15.4413006,53.6591181 15.6527706,56.1875812 C16.6702207,54.2129302 21.2188208,45.9907368 23.8641909,51.278684 C25.216801,53.9898891 21.3704408,56.2617952 19.8781808,56.7601463 C18.6492607,57.1687223 16.4547607,56.8012433 15.7086306,56.6560073 C15.7485306,56.9408933 15.8004006,57.2046323 15.8762106,57.4288703 C16.8497707,60.3511464 18.8168407,63.3193075 18.8367907,63.3492325 C18.9126008,63.4637455 18.8846708,63.6181585 18.7689607,63.6947665 C18.7250707,63.7230955 18.6771907,63.7362625 18.6293107,63.7362625 C18.5495107,63.7362625 18.4697107,63.6979585 18.4218307,63.6257395 C18.4058707,63.6002035 16.9455307,61.3905414 15.8961606,58.8864173 C14.7231006,58.7383883 10.2104104,58.1231303 8.91366035,57.2584973 C7.41741029,56.2617952 4.74012019,52.9868031 6.91866027,51.7770351 C10.2902104,49.904129 13.8253505,54.8816542 15.3734706,57.4703663 C14.7989106,55.5384082 15.3056406,51.6736941 15.9081306,48.0439909 C14.6991606,48.4058839 10.7769904,47.7044419 9.41241037,46.7935249 C7.91616031,45.7968228 5.33862021,43.2152927 6.91866027,41.8104137 C10.8807304,38.2892385 15.0662406,45.7485438 15.9919206,47.5384579 C16.0836906,46.9734739 16.1794506,46.4168688 16.2752106,45.8774208 C16.5225907,44.4302478 16.7580007,43.0636727 16.8896707,42.0286667 C17.0732107,40.5427906 16.5225907,38.4069435 15.5330706,36.0113474 C14.7470406,36.2607224 12.0857105,36.9960795 9.16104036,36.5783265 C5.67378023,36.0799754 3.90621016,33.3635833 5.17503021,32.0931673 C7.33761029,29.9309862 13.7295905,34.4109584 15.3774606,35.6326964 C14.3719806,33.2754043 12.9635105,30.6906822 11.4193805,28.2248621 C9.38448037,28.6952831 1.28478005,28.5225161 2.38203009,25.306576 C3.47928014,22.0938279 7.6248903,24.254812 10.0587904,26.139289 C9.85929039,25.84363 9.65979038,25.547971 9.45630038,25.259494 C8.53461034,23.942794 7.88823031,22.2310839 7.4333703,20.4184268" id="path-9"></path>
        <linearGradient x1="41.4706072%" y1="31.8588535%" x2="54.0333403%" y2="56.6818114%" id="linearGradient-11">
            <stop stop-color="#618ABA" offset="0%"></stop>
            <stop stop-color="#39609D" offset="100%"></stop>
        </linearGradient>
        <path d="M2.31819009,30.5306832 C6.49971026,28.8572771 7.5251403,35.2592324 7.74459031,37.3587705 C8.66628034,34.2968444 9.05730036,30.5713812 8.64234034,27.5381831 C8.00394032,27.5226221 5.53812022,27.4061141 3.81444015,26.5438751 C1.81944007,25.547173 0.590520023,21.5563749 2.31819009,21.0624128 C5.22291021,20.2332908 7.77651031,25.265479 8.55456034,26.9803811 C8.48673034,26.5937501 8.40294033,26.219089 8.30718033,25.862383 C7.6727703,23.5298289 7.20993029,20.5245608 7.01043028,17.5707637 C6.22440025,17.5563997 4.02990016,17.4801907 2.81694011,17.0760037 C1.32069005,16.5776527 -1.20897005,12.6734375 0.821940033,12.0928925 C3.62691014,11.2924984 6.10470024,15.3108276 6.97053028,16.9251817 C6.80295027,13.8449016 6.93063028,10.8799324 7.4533203,8.85979535 C7.22988029,7.97241932 6.80295027,6.08834124 6.80295027,4.61762718 C6.80295027,2.6246221 9.11715036,-1.29914405 11.2877104,0.631218025 C15.2577606,4.15797917 9.30867037,8.27964933 7.88424031,9.18418236 C7.40145029,11.1739954 7.29771029,14.0459976 7.4692803,17.0261287 C8.35905033,14.7845466 11.9580305,6.71636727 16.2712206,10.5978394 C17.9270707,12.0885035 14.2802106,15.5809506 11.7864605,16.5776527 C9.80742039,17.3700667 8.11566032,17.5376467 7.5051903,17.5735567 C7.70469031,20.4754838 8.15955032,23.4316749 8.78997035,25.730713 C8.90169035,26.147668 8.99346036,26.5893611 9.06927036,27.0458171 C10.0109104,25.140193 14.4078906,17.0345077 19.2597308,20.5640618 C21.2786708,22.0295889 17.2687207,25.547173 15.2737206,26.5438751 C13.5660005,27.3997301 10.0827304,27.4440191 9.12912036,27.4400291 C9.54408038,30.4616562 9.16902036,34.1603864 8.27127033,37.2630105 C9.73560039,35.0481614 14.0168706,29.3620122 17.2687207,33.0224383 C19.1998808,35.1937964 14.2004106,37.0343835 12.7839605,37.5071985 C11.5350905,37.9233555 8.86179035,38.0478435 8.01591032,38.0773695 C7.30968029,40.2172066 6.34410025,41.9931557 5.21892021,42.9308057 C5.17104021,42.9695087 5.1151802,42.9882617 5.0593202,42.9882617 C4.9875002,42.9882617 4.9156802,42.9579377 4.86780019,42.8992847 C4.78002019,42.7935497 4.79598019,42.6363437 4.89972019,42.5481647 C5.97303024,41.6540057 6.89472027,39.9590536 7.5690303,37.9109865 C6.92265028,37.6408635 5.0353802,36.8269035 3.81444015,36.0121454 C2.31819009,35.0154434 0.00399000016,31.4559642 2.31819009,30.5306832" id="path-12"></path>
        <linearGradient x1="49.0963186%" y1="29.8635853%" x2="52.6727373%" y2="102.852302%" id="linearGradient-14">
            <stop stop-color="#E9B841" offset="0%"></stop>
            <stop stop-color="#EEA52D" offset="100%"></stop>
        </linearGradient>
        <path d="M246.243658,79.9077332 C243.230809,79.9077332 240.788131,77.4650551 240.788131,74.451408 L240.788131,52.2929421 C240.788131,35.9203754 227.467515,22.5997599 211.094948,22.5997599 C194.721983,22.5997599 181.401766,35.9203754 181.401766,52.2929421 L181.401766,74.451408 C181.401766,77.4650551 178.959088,79.9077332 175.94584,79.9077332 C172.932592,79.9077332 170.489914,77.4650551 170.489914,74.451408 L170.489914,52.2929421 C170.489914,29.9034552 188.705062,11.6879075 211.094948,11.6879075 C233.484435,11.6879075 251.699584,29.9034552 251.699584,52.2929421 L251.699584,74.451408 C251.699584,77.4650551 249.256906,79.9077332 246.243658,79.9077332" id="path-15"></path>
        <path d="M97.4126619,118.399265 L21.2503418,118.399265 C9.65260838,118.399265 0.25097101,108.998026 0.25097101,97.4002929 L0.25097101,21.2383718 C0.25097101,9.64063838 9.65260838,0.239001009 21.2503418,0.239001009 L97.4126619,0.239001009 C109.009996,0.239001009 118.411634,9.64063838 118.411634,21.2383718 L118.411634,97.4002929 C118.411634,108.998026 109.009996,118.399265 97.4126619,118.399265" id="path-16"></path>
        <linearGradient x1="50%" y1="103.365797%" x2="50%" y2="-4.76893327%" id="linearGradient-18">
            <stop stop-color="#0079C9" offset="0%"></stop>
            <stop stop-color="#00B2D1" offset="100%"></stop>
        </linearGradient>
        <path d="M67.6025727,8.37461133 L34.2629294,0.343938014 L0.923685037,8.37461133 C0.923685037,8.37461133 -2.5444231,41.4253786 4.89732619,56.3092762 C12.3394745,71.1935728 29.8380192,86.4792634 34.2629294,86.4792634 C38.6878395,86.4792634 56.1867832,71.1935728 63.6289315,56.3092762 C71.0706808,41.4253786 67.6025727,8.37461133 67.6025727,8.37461133" id="path-19"></path>
        <linearGradient x1="50%" y1="106.865113%" x2="50%" y2="-4.81786083%" id="linearGradient-21">
            <stop stop-color="#181E41" offset="0%"></stop>
            <stop stop-color="#23345E" offset="100%"></stop>
        </linearGradient>
        <path d="M93.4258537,42.1902617 L9.81859239,42.1902617 C4.55338818,42.1902617 0.285285011,37.9221585 0.285285011,32.6569543 L0.285285011,9.84412839 C0.285285011,4.57892418 4.55338818,0.310422012 9.81859239,0.310422012 L93.4258537,0.310422012 C98.6926539,0.310422012 102.957964,4.57892418 102.957964,9.84412839 L102.957964,32.6569543 C102.957964,37.9221585 98.6926539,42.1902617 93.4258537,42.1902617" id="path-22"></path>
        <linearGradient x1="50%" y1="103.365797%" x2="50%" y2="-4.76893327%" id="linearGradient-24">
            <stop stop-color="#F27D09" offset="0%"></stop>
            <stop stop-color="#FFAC09" offset="100%"></stop>
        </linearGradient>
        <path d="M0.191121008,0.397404016 C-0.0195510008,0.526680021 0.379050015,0.726978029 0.424137017,0.869421035 C0.470022019,1.01186404 0.586530023,1.53615006 0.722190029,1.66542607 C0.857850034,1.79510107 0.948822038,1.83380407 1.09086604,1.81425307 C1.23330905,1.79510107 1.33704905,1.28358305 1.23330905,1.01824804 C1.12996804,0.75291303 0.476007019,0.222642009 0.191121008,0.397404016" id="path-25"></path>
        <path d="M3.00447012,0.231021009 C3.00447012,0.231021009 0.215061009,2.00577308 0.385434015,2.4183391 C0.51471002,2.73554411 0.933660037,3.11938212 1.37655005,3.30332113 C1.44039006,3.19279813 1.50822006,3.12018012 1.57206006,3.09544212 C2.4738001,2.75469611 4.12566016,2.4630271 4.19748017,1.95270608 C3.97803016,1.15710005 3.41145014,0.408975016 3.00447012,0.231021009" id="path-27"></path>
        <path d="M-0.000798000032,1.43360706 C0.709422028,2.06203208 1.77475207,3.37314613 1.97983808,4.15199416 C2.18492409,4.9308422 2.4861691,6.42749126 2.20846509,7.12254928 C1.93076108,7.81720831 1.68737107,8.32114533 1.91320508,8.45999734 C2.13903908,8.59924834 2.97294912,8.73810035 3.42461714,8.56453534 C3.87628515,8.39057133 4.46680518,6.70559427 4.77962119,5.52415522 C5.0924372,4.34311517 5.21373321,1.78911607 4.41453618,1.18143905 C3.61573814,0.573363023 3.26781013,0.191121008 2.79938411,0.191121008 C2.33016009,0.191121008 -0.000798000032,1.43360706 -0.000798000032,1.43360706" id="path-29"></path>
    </defs>
    <g id="---↳-Add-authorized-user-(JB)" stroke="none" stroke-width="1" fill="none" fill-rule="evenodd">
        <g id="1---add-authorized-user---empty-state" transform="translate(-519.000000, -262.000000)">
            <g id="illustration" transform="translate(519.000000, 262.000000)">
                <g id="Group-1058" transform="translate(66.234003, 185.136007)">
                    <mask id="mask-2" fill="white">
                        <use xlink:href="#path-1"></use>
                    </mask>
                    <g id="Clip-1057"></g>
                    <path d="M157.46376,12.1990265 C70.6361698,12.1990265 0.24817801,9.52931738 0.24817801,6.23597125 C0.24817801,2.94262512 70.6361698,0.272916011 157.46376,0.272916011 C244.29175,0.272916011 314.679343,2.94262512 314.679343,6.23597125 C314.679343,9.52931738 244.29175,12.1990265 157.46376,12.1990265" id="Fill-1056" mask="url(#mask-2)"></path>
                </g>
                <path d="M73.7990429,173.257378 C116.869898,180.7099 130.192907,131.386715 188.88182,124.715036 C257.218951,116.947304 286.213085,178.471909 332.873743,164.530849 C385.230525,148.887255 422.233787,49.452461 392.867386,12.9048575 C356.933444,-31.8166603 253.171894,56.8894223 65.0721146,53.8111371 C44.9166288,53.4811641 14.0795136,51.9386301 3.98561116,69.0828627 C-11.9396765,96.1310738 26.4896111,165.071095 73.7990429,173.257378" id="Fill-1059" fill="#F5F5F5"></path>
                <g id="Group-1062" transform="translate(87.780003, 131.670005)">
                    <mask id="mask-4" fill="white">
                        <use xlink:href="#path-3"></use>
                    </mask>
                    <g id="Clip-1061"></g>
                    <path d="M6.83207727,18.5650717 C5.20335921,18.9896078 -0.967176038,18.7410307 0.211470008,15.6962616 C1.52178606,12.3111455 5.0198192,15.2701296 6.52045826,17.1466267 C5.95148424,14.1529296 5.87367923,11.1033724 5.88205823,9.47146238 C4.77243919,8.13880232 2.4291121,-0.329574013 7.04514328,0.0901740036 C13.0939835,0.639996025 7.73501431,8.65550734 6.34170625,9.56562638 C6.34250425,11.5187315 6.47257826,15.3886326 7.35676229,18.7466167 C7.5446913,16.6127647 9.67295738,10.5435754 12.5014685,12.6838115 C16.6043857,15.7884306 8.75366135,19.5358388 7.5634443,19.4712008 C7.93730732,20.6965298 8.42129433,21.8256999 9.05291136,22.7282379 C9.50817038,23.3782089 10.0113094,24.131122 10.5324034,24.950269 L10.5599344,24.980593 C10.8232744,22.7342229 12.9200195,16.9638847 15.6886806,19.0590338 C19.5194798,21.9573699 12.9315905,25.415902 11.0706544,25.810513 C12.2245625,27.6878081 13.4139815,29.8332312 14.3312826,31.9004503 C14.4605586,29.8715352 18.4417807,25.72393 20.0234168,28.0955861 C20.9052068,29.4182712 16.2389016,33.7278703 14.7007566,32.7618913 C15.5781576,34.9053194 16.1060346,36.9086985 15.9232926,38.3702355 C15.8558616,38.9092845 15.7573086,39.5448916 15.6435936,40.2335656 C16.7336617,39.0281866 20.6717918,34.9859174 21.8448519,38.1140775 C22.8176139,40.7079766 19.5677588,42.2126057 18.2019817,42.2126057 C17.1326617,42.2126057 15.9991026,41.2007416 15.5554146,40.7594476 C15.4923726,41.1325126 15.4265376,41.5163506 15.3587076,41.9077697 C14.8088856,45.0993708 14.1493386,48.9413419 14.3432526,51.25235 C15.2733216,49.447673 19.4285078,41.9341037 21.8448519,46.7659939 C23.0837469,49.243784 19.5677588,51.319781 18.2019817,51.7754391 C17.0811907,52.1489031 15.0766146,51.8133441 14.3915316,51.6804771 C14.4298356,51.9406251 14.4789126,52.1816211 14.5467426,52.3863081 C15.4373106,55.0564162 17.2348057,57.7692173 17.2527607,57.7967483 C17.3225857,57.9008873 17.2942567,58.0425323 17.1897187,58.1123573 C17.1506167,58.1382923 17.1071257,58.1502623 17.0636347,58.1502623 C16.9902187,58.1502623 16.9176007,58.1147513 16.8741097,58.0489163 C16.8581497,58.0257743 15.5222976,56.0068342 14.5650966,53.7181701 C13.4925845,53.5829091 9.36852037,53.0207181 8.18349033,52.2306981 C6.81731427,51.319781 4.37184317,48.3272809 6.36205525,47.2216519 C9.44233538,45.5103408 12.6722405,50.058941 14.0866956,52.4246121 C13.5600155,50.659037 14.0264466,47.1266899 14.5742736,43.8106007 C13.4714375,44.1409728 9.88722039,43.5001787 8.63874934,42.6678647 C7.27297229,41.7569477 4.9180742,39.3972616 6.36205525,38.1140775 C9.9821824,34.8961424 13.8069965,41.7126587 14.6508816,43.3481597 C14.7378636,42.8322527 14.8252446,42.3231287 14.9102316,41.8303637 C15.1380606,40.5080776 15.3531216,39.2592076 15.4712256,38.3135775 C15.6411996,36.9557805 15.1356666,35.0038724 14.2335276,32.8145593 C13.5145295,33.0427873 11.0830234,33.7143043 8.41131933,33.3324613 C5.22370821,32.8776013 3.60735914,30.3954222 4.76844919,29.2343322 C6.74429727,27.2580851 12.5836625,31.3518252 14.0922816,32.4686263 C13.1733845,30.3144252 11.8854125,27.9523451 10.4725534,25.699192 C8.61480934,26.128915 1.21415705,25.971709 2.21564709,23.0326749 C3.21633913,20.0964338 7.00524328,22.0714839 9.23126437,23.7935679 C9.04812336,23.5226469 8.86458335,23.2529229 8.67984634,22.9891839 C7.83755731,21.7861989 7.24703729,20.2221188 6.83207727,18.5650717" id="Fill-1060" fill="url(#linearGradient-5)" mask="url(#mask-4)"></path>
                </g>
                <g id="Group-1065" transform="translate(105.735004, 150.423006)">
                    <mask id="mask-7" fill="white">
                        <use xlink:href="#path-6"></use>
                    </mask>
                    <g id="Clip-1064"></g>
                    <path d="M2.06841608,28.0129931 C5.89083623,26.4840251 6.82529427,32.3345623 7.02678928,34.2529544 C7.86907831,31.4547672 8.22658233,28.0508981 7.84593631,25.278646 C7.26419429,25.263883 5.0094452,25.157749 3.43459214,24.370123 C1.61275806,23.4596049 0.489573019,19.8119468 2.06841608,19.3610768 C4.72056919,18.6033757 7.05631528,23.2022499 7.76613631,24.768724 C7.70389231,24.415609 7.6296783,24.073267 7.5407013,23.7472839 C6.95935828,21.6154269 6.53841326,18.8695087 6.35646925,16.1702736 C5.63707222,16.1571066 3.63169814,16.0872816 2.5236751,15.7182066 C1.15749905,15.2625486 -1.15550405,11.6950895 0.702240028,11.1644194 C3.26222413,10.4330524 5.52734722,14.1054486 6.32016025,15.5805516 C6.16734325,12.7652075 6.28305325,10.0559974 6.76185327,8.20982433 C6.55716626,7.39865729 6.16694425,5.67777023 6.16694425,4.33353917 C6.16694425,2.5121041 8.28044733,-1.07331004 10.2650734,0.690669027 C13.8903876,3.91339216 8.45760334,7.67955331 7.15486828,8.50628134 C6.71477127,10.3245244 6.61741526,12.9491465 6.77502027,15.6723216 C7.5889803,13.6242545 10.8779374,6.25113325 14.8188606,9.79824339 C16.3326666,11.1604294 12.9974255,14.3520306 10.7207314,15.2625486 C8.90967035,15.9871326 7.36474229,16.1399496 6.80694027,16.1726676 C6.99008128,18.8244217 7.40703629,21.5260509 7.98000032,23.6271849 C8.08413932,24.00823 8.16753032,24.411619 8.23575933,24.828973 C9.09919536,23.0869389 13.1167265,15.6807006 17.5512127,18.9058178 C19.3925978,20.2448618 15.7293786,23.4596049 13.9079436,24.370123 C12.3442625,25.151764 9.16143936,25.192861 8.29082133,25.188871 C8.66907334,27.9503501 8.32752933,31.3306782 7.5071853,34.1651744 C8.84503235,32.1414463 12.7564295,26.9452691 15.7293786,30.2900862 C17.4937567,32.2747123 12.9272015,33.9564973 11.6312495,34.3886144 C10.4901094,34.7688614 8.04862832,34.8825764 7.27536629,34.9093094 C6.62778926,36.8652075 5.74639823,38.4883395 4.71897319,39.3449926 C4.67588119,39.3801046 4.62441018,39.3972616 4.57293918,39.3972616 C4.50790218,39.3972616 4.44286518,39.3697306 4.39777817,39.3158656 C4.31757917,39.2193076 4.33074617,39.0756676 4.42690518,38.9954685 C5.40804621,38.1779175 6.24834025,36.6289995 6.86758827,34.7572904 C6.27507325,34.5103094 4.55099418,33.7665733 3.43459214,33.0224383 C2.06841608,32.1115213 -0.0454860018,28.8588731 2.06841608,28.0129931" id="Fill-1063" fill="url(#linearGradient-8)" mask="url(#mask-7)"></path>
                </g>
                <path d="M98.0127579,189.820268 L118.73243,189.820268 C118.858115,189.820268 118.960259,189.718523 118.960259,189.592838 C118.960259,189.467153 118.858115,189.365408 118.73243,189.365408 L98.0127579,189.365408 C97.8870729,189.365408 97.7849289,189.467153 97.7849289,189.592838 C97.7849289,189.718523 97.8870729,189.820268 98.0127579,189.820268" id="Fill-1066" fill="#62347F"></path>
                <path d="M90.7266186,189.820268 L95.5082348,189.820268 C95.6339198,189.820268 95.7356648,189.718523 95.7356648,189.592838 C95.7356648,189.467153 95.6339198,189.365408 95.5082348,189.365408 L90.7266186,189.365408 C90.6009336,189.365408 90.4987896,189.467153 90.4987896,189.592838 C90.4987896,189.718523 90.6009336,189.820268 90.7266186,189.820268" id="Fill-1067" fill="#62347F"></path>
                <g id="Group-1070" transform="translate(322.392013, 126.084005)">
                    <mask id="mask-10" fill="white">
                        <use xlink:href="#path-9"></use>
                    </mask>
                    <g id="Clip-1069"></g>
                    <path d="M7.4333703,20.4184268 C5.65383022,20.8824638 -1.10124004,20.6099468 0.187530007,17.2786957 C1.62393006,13.5743795 5.45034022,16.8122647 7.09422028,18.8655187 C6.47178026,15.5897286 6.38400025,12.2524925 6.39597025,10.4669674 C5.17902021,9.00822336 2.6174401,-0.25855201 7.6687803,0.200697008 C14.2881906,0.802389032 8.42289033,9.57400538 6.89871027,10.5695104 C6.89871027,12.7073525 7.04235028,16.9423387 8.00793032,20.6167298 C8.21541033,18.2813827 10.5415804,11.6400275 13.6378205,13.9821576 C18.1265707,17.3796427 9.53610038,21.4801659 8.23536033,21.4095429 C8.64234034,22.7505819 9.17301036,23.986285 9.86328039,24.97381 C10.3620304,25.685227 10.9126504,26.5091621 11.4832205,27.4057151 L11.5151405,27.4384331 C11.8024205,24.980194 14.0966706,18.6656197 17.1250807,20.9582738 C21.3185708,24.130723 14.1086406,27.9148391 12.0737405,28.3465571 C13.3345805,30.4010082 14.6353206,32.7483253 15.6408006,35.0110544 C15.7804506,32.7906193 20.1375308,28.2519941 21.8691909,30.8474892 C22.8347709,32.2950613 17.7275707,37.0108425 16.0437906,35.9538914 C17.0053807,38.2988145 17.5839307,40.4913196 17.3844307,42.0905117 C17.3086207,42.6806327 17.2008907,43.3764887 17.0772007,44.1298008 C18.2702107,42.8107067 22.5794109,38.3869935 23.8641909,41.8104137 C24.925531,44.6485008 21.3704408,46.2951738 19.8781808,46.2951738 C18.7051207,46.2951738 17.4642307,45.1883478 16.9814407,44.7055578 C16.9096207,45.1141338 16.8378007,45.5334828 16.7659807,45.9620088 C16.1634906,49.454456 15.4413006,53.6591181 15.6527706,56.1875812 C16.6702207,54.2129302 21.2188208,45.9907368 23.8641909,51.278684 C25.216801,53.9898891 21.3704408,56.2617952 19.8781808,56.7601463 C18.6492607,57.1687223 16.4547607,56.8012433 15.7086306,56.6560073 C15.7485306,56.9408933 15.8004006,57.2046323 15.8762106,57.4288703 C16.8497707,60.3511464 18.8168407,63.3193075 18.8367907,63.3492325 C18.9126008,63.4637455 18.8846708,63.6181585 18.7689607,63.6947665 C18.7250707,63.7230955 18.6771907,63.7362625 18.6293107,63.7362625 C18.5495107,63.7362625 18.4697107,63.6979585 18.4218307,63.6257395 C18.4058707,63.6002035 16.9455307,61.3905414 15.8961606,58.8864173 C14.7231006,58.7383883 10.2104104,58.1231303 8.91366035,57.2584973 C7.41741029,56.2617952 4.74012019,52.9868031 6.91866027,51.7770351 C10.2902104,49.904129 13.8253505,54.8816542 15.3734706,57.4703663 C14.7989106,55.5384082 15.3056406,51.6736941 15.9081306,48.0439909 C14.6991606,48.4058839 10.7769904,47.7044419 9.41241037,46.7935249 C7.91616031,45.7968228 5.33862021,43.2152927 6.91866027,41.8104137 C10.8807304,38.2892385 15.0662406,45.7485438 15.9919206,47.5384579 C16.0836906,46.9734739 16.1794506,46.4168688 16.2752106,45.8774208 C16.5225907,44.4302478 16.7580007,43.0636727 16.8896707,42.0286667 C17.0732107,40.5427906 16.5225907,38.4069435 15.5330706,36.0113474 C14.7470406,36.2607224 12.0857105,36.9960795 9.16104036,36.5783265 C5.67378023,36.0799754 3.90621016,33.3635833 5.17503021,32.0931673 C7.33761029,29.9309862 13.7295905,34.4109584 15.3774606,35.6326964 C14.3719806,33.2754043 12.9635105,30.6906822 11.4193805,28.2248621 C9.38448037,28.6952831 1.28478005,28.5225161 2.38203009,25.306576 C3.47928014,22.0938279 7.6248903,24.254812 10.0587904,26.139289 C9.85929039,25.84363 9.65979038,25.547971 9.45630038,25.259494 C8.53461034,23.942794 7.88823031,22.2310839 7.4333703,20.4184268" id="Fill-1068" fill="url(#linearGradient-11)" mask="url(#mask-10)"></path>
                </g>
                <g id="Group-1073" transform="translate(341.943014, 146.832006)">
                    <mask id="mask-13" fill="white">
                        <use xlink:href="#path-12"></use>
                    </mask>
                    <g id="Clip-1072"></g>
                    <path d="M2.31819009,30.5306832 C6.49971026,28.8572771 7.5251403,35.2592324 7.74459031,37.3587705 C8.66628034,34.2968444 9.05730036,30.5713812 8.64234034,27.5381831 C8.00394032,27.5226221 5.53812022,27.4061141 3.81444015,26.5438751 C1.81944007,25.547173 0.590520023,21.5563749 2.31819009,21.0624128 C5.22291021,20.2332908 7.77651031,25.265479 8.55456034,26.9803811 C8.48673034,26.5937501 8.40294033,26.219089 8.30718033,25.862383 C7.6727703,23.5298289 7.20993029,20.5245608 7.01043028,17.5707637 C6.22440025,17.5563997 4.02990016,17.4801907 2.81694011,17.0760037 C1.32069005,16.5776527 -1.20897005,12.6734375 0.821940033,12.0928925 C3.62691014,11.2924984 6.10470024,15.3108276 6.97053028,16.9251817 C6.80295027,13.8449016 6.93063028,10.8799324 7.4533203,8.85979535 C7.22988029,7.97241932 6.80295027,6.08834124 6.80295027,4.61762718 C6.80295027,2.6246221 9.11715036,-1.29914405 11.2877104,0.631218025 C15.2577606,4.15797917 9.30867037,8.27964933 7.88424031,9.18418236 C7.40145029,11.1739954 7.29771029,14.0459976 7.4692803,17.0261287 C8.35905033,14.7845466 11.9580305,6.71636727 16.2712206,10.5978394 C17.9270707,12.0885035 14.2802106,15.5809506 11.7864605,16.5776527 C9.80742039,17.3700667 8.11566032,17.5376467 7.5051903,17.5735567 C7.70469031,20.4754838 8.15955032,23.4316749 8.78997035,25.730713 C8.90169035,26.147668 8.99346036,26.5893611 9.06927036,27.0458171 C10.0109104,25.140193 14.4078906,17.0345077 19.2597308,20.5640618 C21.2786708,22.0295889 17.2687207,25.547173 15.2737206,26.5438751 C13.5660005,27.3997301 10.0827304,27.4440191 9.12912036,27.4400291 C9.54408038,30.4616562 9.16902036,34.1603864 8.27127033,37.2630105 C9.73560039,35.0481614 14.0168706,29.3620122 17.2687207,33.0224383 C19.1998808,35.1937964 14.2004106,37.0343835 12.7839605,37.5071985 C11.5350905,37.9233555 8.86179035,38.0478435 8.01591032,38.0773695 C7.30968029,40.2172066 6.34410025,41.9931557 5.21892021,42.9308057 C5.17104021,42.9695087 5.1151802,42.9882617 5.0593202,42.9882617 C4.9875002,42.9882617 4.9156802,42.9579377 4.86780019,42.8992847 C4.78002019,42.7935497 4.79598019,42.6363437 4.89972019,42.5481647 C5.97303024,41.6540057 6.89472027,39.9590536 7.5690303,37.9109865 C6.92265028,37.6408635 5.0353802,36.8269035 3.81444015,36.0121454 C2.31819009,35.0154434 0.00399000016,31.4559642 2.31819009,30.5306832" id="Fill-1071" fill="url(#linearGradient-14)" mask="url(#mask-13)"></path>
                </g>
                <path d="M333.548053,189.820268 L356.223224,189.820268 C356.358884,189.820268 356.470604,189.708947 356.470604,189.571292 C356.470604,189.434036 356.358884,189.322316 356.223224,189.322316 L333.548053,189.322316 C333.408403,189.322316 333.296683,189.434036 333.296683,189.571292 C333.296683,189.708947 333.408403,189.820268 333.548053,189.820268" id="Fill-1074" fill="#62347F"></path>
                <path d="M325.576033,189.820268 L330.806923,189.820268 C330.946573,189.820268 331.054303,189.708947 331.054303,189.571292 C331.054303,189.434036 330.946573,189.322316 330.806923,189.322316 L325.576033,189.322316 C325.436383,189.322316 325.324663,189.434036 325.324663,189.571292 C325.324663,189.708947 325.436383,189.820268 325.576033,189.820268" id="Fill-1075" fill="#62347F"></path>
                <g id="Fill-1076">
                    <use fill="#0079C9" xlink:href="#path-15"></use>
                    <use fill-opacity="0.85" fill="#FFFFFF" xlink:href="#path-15"></use>
                </g>
                <g id="Group-1079" transform="translate(152.019006, 71.421003)">
                    <mask id="mask-17" fill="white">
                        <use xlink:href="#path-16"></use>
                    </mask>
                    <g id="Clip-1078"></g>
                    <path d="M97.4126619,118.399265 L21.2503418,118.399265 C9.65260838,118.399265 0.25097101,108.998026 0.25097101,97.4002929 L0.25097101,21.2383718 C0.25097101,9.64063838 9.65260838,0.239001009 21.2503418,0.239001009 L97.4126619,0.239001009 C109.009996,0.239001009 118.411634,9.64063838 118.411634,21.2383718 L118.411634,97.4002929 C118.411634,108.998026 109.009996,118.399265 97.4126619,118.399265" id="Fill-1077" fill="url(#linearGradient-18)" mask="url(#mask-17)"></path>
                </g>
                <path d="M219.536991,155.201031 L203.163626,155.201031 C202.436648,155.201031 201.746777,154.879437 201.279548,154.32363 C200.81192,153.767823 200.612819,153.032865 200.738105,152.317059 L204.028658,133.377326 C199.264199,130.745921 196.281674,125.772785 196.281674,120.213119 C196.281674,111.904342 203.041532,105.144484 211.350308,105.144484 C219.659085,105.144484 226.419342,111.904342 226.419342,120.213119 C226.419342,125.772785 223.436418,130.745921 218.672358,133.377326 L221.962911,152.317059 C222.087798,153.032865 221.888697,153.767823 221.421069,154.32363 C220.95384,154.879437 220.264368,155.201031 219.536991,155.201031" id="Fill-1080" fill="#FFFFFE"></path>
                <g id="Group-1083" transform="translate(111.321004, 103.341004)">
                    <mask id="mask-20" fill="white">
                        <use xlink:href="#path-19"></use>
                    </mask>
                    <g id="Clip-1082"></g>
                    <path d="M67.6025727,8.37461133 L34.2629294,0.343938014 L0.923685037,8.37461133 C0.923685037,8.37461133 -2.5444231,41.4253786 4.89732619,56.3092762 C12.3394745,71.1935728 29.8380192,86.4792634 34.2629294,86.4792634 C38.6878395,86.4792634 56.1867832,71.1935728 63.6289315,56.3092762 C71.0706808,41.4253786 67.6025727,8.37461133 67.6025727,8.37461133" id="Fill-1081" fill="url(#linearGradient-21)" mask="url(#mask-20)"></path>
                </g>
                <path d="M117.059024,116.676383 C116.903813,118.328243 116.35439,124.731794 116.401472,132.24257 C116.47409,143.695866 117.893333,152.511372 120.505187,157.735479 C123.342875,163.410855 128.326385,169.920541 134.17772,175.596316 C139.673946,180.927355 144.076113,183.716764 145.584333,183.716764 C147.092154,183.716764 151.494321,180.927355 156.990546,175.596316 C162.841881,169.920541 167.825392,163.410855 170.66308,157.735479 C173.274934,152.511372 174.694177,143.695866 174.766396,132.24257 C174.813877,124.731794 174.264454,118.328243 174.108844,116.676383 L145.584333,109.805602 L117.059024,116.676383 Z M145.584333,184.893415 C144.497457,184.893415 142.797318,184.088233 140.530998,182.501809 C138.358442,180.980422 135.878258,178.884874 133.358573,176.4406 C127.415867,170.676646 122.34737,164.050453 119.453024,158.26176 C116.72147,152.798253 115.299035,144.042597 115.22522,132.237782 C115.170557,123.479732 115.921874,116.213543 115.929455,116.141324 C115.95539,115.893944 116.134541,115.689257 116.376734,115.631003 L145.446279,108.628951 C145.536852,108.607006 145.631016,108.607006 145.721988,108.628951 L174.791533,115.631003 C175.033726,115.689257 175.212478,115.893944 175.238812,116.141324 C175.246393,116.213543 175.99771,123.479732 175.942648,132.237782 C175.869232,144.042597 174.446797,152.798253 171.714844,158.26176 C168.820498,164.050453 163.7524,170.676646 157.809693,176.4406 C155.289609,178.884874 152.809425,180.980422 150.637269,182.501809 C148.37055,184.088233 146.670411,184.893415 145.584333,184.893415 L145.584333,184.893415 Z" id="Fill-1084" fill="#FFFFFE"></path>
                <g id="Group-1087" transform="translate(230.223009, 147.630006)">
                    <mask id="mask-23" fill="white">
                        <use xlink:href="#path-22"></use>
                    </mask>
                    <g id="Clip-1086"></g>
                    <path d="M93.4258537,42.1902617 L9.81859239,42.1902617 C4.55338818,42.1902617 0.285285011,37.9221585 0.285285011,32.6569543 L0.285285011,9.84412839 C0.285285011,4.57892418 4.55338818,0.310422012 9.81859239,0.310422012 L93.4258537,0.310422012 C98.6926539,0.310422012 102.957964,4.57892418 102.957964,9.84412839 L102.957964,32.6569543 C102.957964,37.9221585 98.6926539,42.1902617 93.4258537,42.1902617" id="Fill-1085" fill="url(#linearGradient-24)" mask="url(#mask-23)"></path>
                </g>
                <path d="M319.156123,168.30499 L280.93232,168.30499 C279.602852,168.30499 278.525552,167.226892 278.525552,165.897424 C278.525552,164.567956 279.602852,163.490655 280.93232,163.490655 L319.156123,163.490655 C320.488783,163.490655 321.566083,164.567956 321.566083,165.897424 C321.566083,167.226892 320.488783,168.30499 319.156123,168.30499" id="Fill-1088" fill="#FFFFFE"></path>
                <path d="M319.156123,178.566073 L280.93232,178.566073 C279.602852,178.566073 278.525552,177.488773 278.525552,176.158906 C278.525552,174.829438 279.602852,173.752138 280.93232,173.752138 L319.156123,173.752138 C320.488783,173.752138 321.566083,174.829438 321.566083,176.158906 C321.566083,177.488773 320.488783,178.566073 319.156123,178.566073" id="Fill-1089" fill="#FFFFFE"></path>
                <path d="M247.469386,168.371224 C246.157873,168.371224 245.090548,169.437751 245.090548,170.749663 C245.090548,172.061974 246.157873,173.128501 247.469386,173.128501 C248.781298,173.128501 249.848623,172.061974 249.848623,170.749663 C249.848623,169.437751 248.781298,168.371224 247.469386,168.371224 Z M247.469386,176.582644 C244.253047,176.582644 241.636405,173.966002 241.636405,170.749663 C241.636405,167.533723 244.253047,164.917081 247.469386,164.917081 C250.685326,164.917081 253.301968,167.533723 253.301968,170.749663 C253.301968,173.966002 250.685326,176.582644 247.469386,176.582644 L247.469386,176.582644 Z" id="Fill-1090" fill="#FFFFFE"></path>
                <path d="M263.660806,168.371224 C262.349293,168.371224 261.281968,169.437751 261.281968,170.749663 C261.281968,172.061974 262.349293,173.128501 263.660806,173.128501 C264.972719,173.128501 266.040044,172.061974 266.040044,170.749663 C266.040044,169.437751 264.972719,168.371224 263.660806,168.371224 Z M263.660806,176.582644 C260.444467,176.582644 257.828224,173.966002 257.828224,170.749663 C257.828224,167.533723 260.444467,164.917081 263.660806,164.917081 C266.876747,164.917081 269.493389,167.533723 269.493389,170.749663 C269.493389,173.966002 266.876747,176.582644 263.660806,176.582644 L263.660806,176.582644 Z" id="Fill-1091" fill="#FFFFFE"></path>
                <g id="Group-1108" transform="translate(268.527011, 99.351004)">
                    <mask id="mask-26" fill="white">
                        <use xlink:href="#path-25"></use>
                    </mask>
                    <g id="Clip-1107"></g>
                    <path d="M0.191121008,0.397404016 C-0.0195510008,0.526680021 0.379050015,0.726978029 0.424137017,0.869421035 C0.470022019,1.01186404 0.586530023,1.53615006 0.722190029,1.66542607 C0.857850034,1.79510107 0.948822038,1.83380407 1.09086604,1.81425307 C1.23330905,1.79510107 1.33704905,1.28358305 1.23330905,1.01824804 C1.12996804,0.75291303 0.476007019,0.222642009 0.191121008,0.397404016" id="Fill-1106" mask="url(#mask-26)"></path>
                </g>
                <g id="Group-1114" transform="translate(293.265012, 128.478005)">
                    <mask id="mask-28" fill="white">
                        <use xlink:href="#path-27"></use>
                    </mask>
                    <g id="Clip-1113"></g>
                    <path d="M3.00447012,0.231021009 C3.00447012,0.231021009 0.215061009,2.00577308 0.385434015,2.4183391 C0.51471002,2.73554411 0.933660037,3.11938212 1.37655005,3.30332113 C1.44039006,3.19279813 1.50822006,3.12018012 1.57206006,3.09544212 C2.4738001,2.75469611 4.12566016,2.4630271 4.19748017,1.95270608 C3.97803016,1.15710005 3.41145014,0.408975016 3.00447012,0.231021009" id="Fill-1112" mask="url(#mask-28)"></path>
                </g>
                <g id="Group-1117" transform="translate(286.482011, 118.503005)">
                    <mask id="mask-30" fill="white">
                        <use xlink:href="#path-29"></use>
                    </mask>
                    <g id="Clip-1116"></g>
                </g>
                <path d="M157.854381,41.9069717 L155.460381,41.9069717 C154.909362,41.9069717 154.462881,41.4604906 154.462881,40.9094716 C154.462881,40.3588516 154.909362,39.9119716 155.460381,39.9119716 L157.854381,39.9119716 C158.4054,39.9119716 158.851881,40.3588516 158.851881,40.9094716 C158.851881,41.4604906 158.4054,41.9069717 157.854381,41.9069717" id="Fill-1121" fill="#0079C9"></path>
                <path d="M140.621172,41.9069717 L135.675167,41.9069717 C135.124148,41.9069717 134.677667,41.4604906 134.677667,40.9094716 C134.677667,40.3588516 135.124148,39.9119716 135.675167,39.9119716 L140.621172,39.9119716 C141.172191,39.9119716 141.618672,40.3588516 141.618672,40.9094716 C141.618672,41.4604906 141.172191,41.9069717 140.621172,41.9069717 Z M150.513978,41.9069717 L145.567575,41.9069717 C145.016556,41.9069717 144.570075,41.4604906 144.570075,40.9094716 C144.570075,40.3588516 145.016556,39.9119716 145.567575,39.9119716 L150.513978,39.9119716 C151.064997,39.9119716 151.511478,40.3588516 151.511478,40.9094716 C151.511478,41.4604906 151.064997,41.9069717 150.513978,41.9069717 L150.513978,41.9069717 Z" id="Fill-1122" fill="#0079C9"></path>
                <path d="M128.334764,44.3009718 C127.783745,44.3009718 127.337264,43.8544907 127.337264,43.3034717 L127.337264,40.9094716 C127.337264,40.3588516 127.783745,39.9119716 128.334764,39.9119716 L130.728764,39.9119716 C131.279384,39.9119716 131.726264,40.3588516 131.726264,40.9094716 C131.726264,41.4604906 131.279384,41.9069717 130.728764,41.9069717 L129.332264,41.9069717 L129.332264,43.3034717 C129.332264,43.8544907 128.885384,44.3009718 128.334764,44.3009718" id="Fill-1123" fill="#0079C9"></path>
                <path d="M128.334764,53.2010661 C127.783745,53.2010661 127.337264,52.7545851 127.337264,52.2035661 L127.337264,47.7535189 C127.337264,47.2024999 127.783745,46.7560189 128.334764,46.7560189 C128.885384,46.7560189 129.332264,47.2024999 129.332264,47.7535189 L129.332264,52.2035661 C129.332264,52.7545851 128.885384,53.2010661 128.334764,53.2010661 Z M128.334764,62.1011605 C127.783745,62.1011605 127.337264,61.6546794 127.337264,61.1036604 L127.337264,56.6536133 C127.337264,56.1025942 127.783745,55.6561132 128.334764,55.6561132 C128.885384,55.6561132 129.332264,56.1025942 129.332264,56.6536133 L129.332264,61.1036604 C129.332264,61.6546794 128.885384,62.1011605 128.334764,62.1011605 Z M128.334764,71.0008558 C127.783745,71.0008558 127.337264,70.5543748 127.337264,70.0033558 L127.337264,65.5537076 C127.337264,65.0026886 127.783745,64.5562076 128.334764,64.5562076 C128.885384,64.5562076 129.332264,65.0026886 129.332264,65.5537076 L129.332264,70.0033558 C129.332264,70.5543748 128.885384,71.0008558 128.334764,71.0008558 Z M128.334764,79.9009502 C127.783745,79.9009502 127.337264,79.4544692 127.337264,78.9034501 L127.337264,74.453403 C127.337264,73.9023839 127.783745,73.4559029 128.334764,73.4559029 C128.885384,73.4559029 129.332264,73.9023839 129.332264,74.453403 L129.332264,78.9034501 C129.332264,79.4544692 128.885384,79.9009502 128.334764,79.9009502 Z M128.334764,88.8010445 C127.783745,88.8010445 127.337264,88.3545635 127.337264,87.8035445 L127.337264,83.3534973 C127.337264,82.8024783 127.783745,82.3559973 128.334764,82.3559973 C128.885384,82.3559973 129.332264,82.8024783 129.332264,83.3534973 L129.332264,87.8035445 C129.332264,88.3545635 128.885384,88.8010445 128.334764,88.8010445 L128.334764,88.8010445 Z" id="Fill-1124" fill="#0079C9"></path>
                <path d="M128.334764,95.6450918 C127.783745,95.6450918 127.337264,95.1982118 127.337264,94.6475918 L127.337264,92.2535917 C127.337264,91.7025726 127.783745,91.2560916 128.334764,91.2560916 C128.885384,91.2560916 129.332264,91.7025726 129.332264,92.2535917 L129.332264,94.6475918 C129.332264,95.1982118 128.885384,95.6450918 128.334764,95.6450918" id="Fill-1125" fill="#0079C9"></path>
                <path d="M267.421781,41.9069717 L262.63378,41.9069717 C262.08316,41.9069717 261.63628,41.4604906 261.63628,40.9094716 C261.63628,40.3588516 262.08316,39.9119716 262.63378,39.9119716 L267.421781,39.9119716 C267.9728,39.9119716 268.419281,40.3588516 268.419281,40.9094716 C268.419281,41.4604906 267.9728,41.9069717 267.421781,41.9069717 Z M276.997781,41.9069717 L272.209781,41.9069717 C271.659161,41.9069717 271.212281,41.4604906 271.212281,40.9094716 C271.212281,40.3588516 271.659161,39.9119716 272.209781,39.9119716 L276.997781,39.9119716 C277.5488,39.9119716 277.995281,40.3588516 277.995281,40.9094716 C277.995281,41.4604906 277.5488,41.9069717 276.997781,41.9069717 Z M286.573781,41.9069717 L281.785781,41.9069717 C281.235161,41.9069717 280.788281,41.4604906 280.788281,40.9094716 C280.788281,40.3588516 281.235161,39.9119716 281.785781,39.9119716 L286.573781,39.9119716 C287.1248,39.9119716 287.571281,40.3588516 287.571281,40.9094716 C287.571281,41.4604906 287.1248,41.9069717 286.573781,41.9069717 Z M296.149782,41.9069717 L291.361782,41.9069717 C290.811162,41.9069717 290.364282,41.4604906 290.364282,40.9094716 C290.364282,40.3588516 290.811162,39.9119716 291.361782,39.9119716 L296.149782,39.9119716 C296.700402,39.9119716 297.147282,40.3588516 297.147282,40.9094716 C297.147282,41.4604906 296.700402,41.9069717 296.149782,41.9069717 Z M305.725782,41.9069717 L300.937782,41.9069717 C300.387162,41.9069717 299.940282,41.4604906 299.940282,40.9094716 C299.940282,40.3588516 300.387162,39.9119716 300.937782,39.9119716 L305.725782,39.9119716 C306.276402,39.9119716 306.723282,40.3588516 306.723282,40.9094716 C306.723282,41.4604906 306.276402,41.9069717 305.725782,41.9069717 Z M310.884852,46.3250988 C310.334232,46.3250988 309.887352,45.8786178 309.887352,45.3275988 L309.887352,41.6851277 C309.659922,41.5023856 309.516282,41.2230856 309.516282,40.9094716 C309.516282,40.3588516 309.963162,39.9119716 310.513782,39.9119716 L310.884852,39.9119716 C311.435472,39.9119716 311.882352,40.3588516 311.882352,40.9094716 L311.882352,45.3275988 C311.882352,45.8786178 311.435472,46.3250988 310.884852,46.3250988 Z M310.884852,55.9010992 C310.334232,55.9010992 309.887352,55.4546182 309.887352,54.9035992 L309.887352,50.115599 C309.887352,49.56458 310.334232,49.118099 310.884852,49.118099 C311.435472,49.118099 311.882352,49.56458 311.882352,50.115599 L311.882352,54.9035992 C311.882352,55.4546182 311.435472,55.9010992 310.884852,55.9010992 Z M310.884852,65.4770996 C310.334232,65.4770996 309.887352,65.0306186 309.887352,64.4795996 L309.887352,59.6915994 C309.887352,59.1405804 310.334232,58.6940993 310.884852,58.6940993 C311.435472,58.6940993 311.882352,59.1405804 311.882352,59.6915994 L311.882352,64.4795996 C311.882352,65.0306186 311.435472,65.4770996 310.884852,65.4770996 Z M310.884852,75.0531 C310.334232,75.0531 309.887352,74.606619 309.887352,74.0555999 L309.887352,69.2675998 C309.887352,68.7165807 310.334232,68.2700997 310.884852,68.2700997 C311.435472,68.2700997 311.882352,68.7165807 311.882352,69.2675998 L311.882352,74.0555999 C311.882352,74.606619 311.435472,75.0531 310.884852,75.0531 Z M310.884852,84.6291004 C310.334232,84.6291004 309.887352,84.1826193 309.887352,83.6316003 L309.887352,78.8436001 C309.887352,78.2925811 310.334232,77.8461001 310.884852,77.8461001 C311.435472,77.8461001 311.882352,78.2925811 311.882352,78.8436001 L311.882352,83.6316003 C311.882352,84.1826193 311.435472,84.6291004 310.884852,84.6291004 Z M310.884852,94.2051007 C310.334232,94.2051007 309.887352,93.7586197 309.887352,93.2076007 L309.887352,88.4196005 C309.887352,87.8685815 310.334232,87.4221005 310.884852,87.4221005 C311.435472,87.4221005 311.882352,87.8685815 311.882352,88.4196005 L311.882352,93.2076007 C311.882352,93.7586197 311.435472,94.2051007 310.884852,94.2051007 Z M310.884852,103.781101 C310.334232,103.781101 309.887352,103.33462 309.887352,102.783601 L309.887352,97.9956009 C309.887352,97.4445819 310.334232,96.9981009 310.884852,96.9981009 C311.435472,96.9981009 311.882352,97.4445819 311.882352,97.9956009 L311.882352,102.783601 C311.882352,103.33462 311.435472,103.781101 310.884852,103.781101 Z M310.884852,113.357102 C310.334232,113.357102 309.887352,112.91062 309.887352,112.359601 L309.887352,107.571601 C309.887352,107.020582 310.334232,106.574101 310.884852,106.574101 C311.435472,106.574101 311.882352,107.020582 311.882352,107.571601 L311.882352,112.359601 C311.882352,112.91062 311.435472,113.357102 310.884852,113.357102 Z M310.884852,122.933102 C310.334232,122.933102 309.887352,122.486621 309.887352,121.935602 L309.887352,117.147602 C309.887352,116.596583 310.334232,116.150102 310.884852,116.150102 C311.435472,116.150102 311.882352,116.596583 311.882352,117.147602 L311.882352,121.935602 C311.882352,122.486621 311.435472,122.933102 310.884852,122.933102 Z M310.884852,132.509102 C310.334232,132.509102 309.887352,132.062621 309.887352,131.511602 L309.887352,126.723602 C309.887352,126.172583 310.334232,125.726102 310.884852,125.726102 C311.435472,125.726102 311.882352,126.172583 311.882352,126.723602 L311.882352,131.511602 C311.882352,132.062621 311.435472,132.509102 310.884852,132.509102 L310.884852,132.509102 Z" id="Fill-1126" fill="#0079C9"></path>
                <g id="users" transform="translate(132.000000, 136.000000)" stroke="#FFFFFF" stroke-linecap="round" stroke-linejoin="round" stroke-width="2">
                    <path d="M21.3333333,24 L21.3333333,21.3333333 C21.3333333,18.3878147 18.9455187,16 16,16 L5.33333333,16 C2.38781467,16 0,18.3878147 0,21.3333333 L0,24" id="Path"></path>
                    <circle id="Oval" cx="10.6666667" cy="5.33333333" r="5.33333333"></circle>
                    <path d="M29.3333333,24 L29.3333333,21.3333333 C29.3315204,18.9028237 27.686665,16.7809602 25.3333333,16.1733333" id="Path"></path>
                    <path d="M20,0.173333333 C22.3598864,0.777559717 24.0104577,2.9039882 24.0104577,5.34 C24.0104577,7.7760118 22.3598864,9.90244028 20,10.5066667" id="Path"></path>
                </g>
            </g>
        </g>
    </g>
</svg>