<?xml version="1.0" encoding="UTF-8"?>
<svg width="160px" height="160px" viewBox="0 0 160 160" version="1.1" xmlns="http://www.w3.org/2000/svg" xmlns:xlink="http://www.w3.org/1999/xlink">
    <!-- Generator: sketchtool 54.1 (76490) - https://sketchapp.com -->
    <title>8cd8562c-f96b-4afe-a052-80b7a36b041a@1.00x</title>
    <desc>Created with sketchtool.</desc>
    <defs>
        <linearGradient x1="0.0418254486%" y1="50.0117741%" x2="100%" y2="50.0117741%" id="linearGradient-1">
            <stop stop-color="#808080" stop-opacity="0.25" offset="0%"></stop>
            <stop stop-color="#808080" stop-opacity="0.12" offset="54%"></stop>
            <stop stop-color="#808080" stop-opacity="0.1" offset="100%"></stop>
        </linearGradient>
    </defs>
    <g id="Illustrations" stroke="none" stroke-width="1" fill="none" fill-rule="evenodd">
        <g id="5-Illustrations/1-Illustration/GenericEmpty" fill-rule="nonzero">
            <g id="undraw_empty_xct9-(1)" transform="translate(0.000000, 17.000000)">
                <ellipse id="Oval" fill="#1281AC" opacity="0.1" cx="56.2025717" cy="117.31276" rx="27.8694362" ry="5.27952522"></ellipse>
                <path d="M92.9851632,17.6300692 C82.7426311,17.2755687 72.9875371,13.9679525 63.6724036,10.3501484 C54.35727,6.73234421 45.1307616,2.72522255 35.1335312,0.808704253 C28.7034619,-0.42413452 21.3491592,-0.599802176 16.1693373,2.84391691 C11.1825915,6.16735905 9.57151335,11.8884273 8.70583581,17.2011869 C8.05380811,21.1988131 7.67082097,25.4069238 9.45598417,29.1497527 C10.6967359,31.748368 12.8965381,33.9323442 14.4189911,36.4217606 C19.7159248,45.0817013 15.9715134,55.7610287 10.2330366,64.216815 C7.54263106,68.1827893 4.41701286,71.9715134 2.33907023,76.1891197 C0.261127596,80.406726 -0.69950544,85.2557864 1.11889219,89.5699308 C2.91988131,93.8429278 7.21345203,97.046093 11.8646884,99.3012859 C21.3111771,103.882888 32.4383778,105.193274 43.2965381,105.937092 C67.3250247,107.579822 91.4801187,106.869238 115.571909,106.15549 C124.488229,105.892779 133.442532,105.625321 142.213254,104.246884 C147.084471,103.48091 152.112364,102.26548 155.649456,99.3313551 C160.137685,95.6075173 161.250247,89.3024728 158.241741,84.6338279 C153.196439,76.8 139.250643,74.8549951 135.719881,66.4498516 C133.779624,61.8223541 135.772107,56.6694362 138.593867,52.3790307 C144.645697,43.1730959 154.788526,35.0971316 155.32186,24.5760633 C155.689021,17.3499505 150.813056,10.1127596 143.273591,6.69277943 C135.371711,3.10820969 124.412265,3.55924827 118.585163,9.49238378 C112.579228,15.5948566 102.029674,17.9450049 92.9851632,17.6300692 Z" id="Shape" fill="#1281AC" opacity="0.1"></path>
                <path d="M84.8458952,57.2486647 L79.9984174,53.9806133 L79.9984174,53.9806133 L82.4435213,50.3406528 L69.6403561,49.3198813 L65.0397626,52.877547 L59.2807122,49.6490603 L54.477547,50.2267062 L54.4205737,48.960633 C54.3611205,47.6407483 54.2285067,46.3251769 54.0233432,45.0199802 C54.0439169,44.6243323 54.0581602,44.1701286 54.0565776,43.67636 C54.0565776,41.5952522 53.7748764,38.8367953 52.5372898,36.9978239 L52.8221563,34.4371909 L50.5115727,31.7072206 C50.8826343,30.9680864 51.3057231,30.2562394 51.7776459,29.5770524 C51.8567755,29.4631058 51.935905,29.3523244 52.021365,29.2447082 C55.0203759,29.0278932 57.3863501,26.5622156 57.3863501,23.5473788 C57.3863501,23.4081108 57.3863501,23.2688427 57.3705242,23.1311573 C57.3705242,23.0757666 57.3594461,23.0187933 57.3531157,22.9634026 C57.6458952,23.1216617 57.9418398,23.2799209 58.2377844,23.43818 C58.2931751,23.5173096 58.3564787,23.5964392 58.4261128,23.6898121 L58.4261128,23.6898121 L58.4403561,23.7072206 L58.5289812,23.8164194 L58.5574679,23.8496538 C58.5891197,23.887636 58.6223541,23.9240356 58.6555885,23.9620178 L58.6777448,23.9873393 C58.7616222,24.0807122 58.8502473,24.1756677 58.9452028,24.2690406 C58.956507,24.2782392 58.9670887,24.2882918 58.9768546,24.2991098 L59.095549,24.4098912 L59.1287834,24.4399604 C59.2300692,24.5301682 59.3376855,24.6172107 59.4453017,24.6995054 L59.4801187,24.7248269 L59.6162216,24.8181998 L59.6605341,24.8466864 C59.7127596,24.8783383 59.7665678,24.9115727 59.8187933,24.9416419 L59.8377844,24.9527201 C59.8995054,24.9859545 59.9628091,25.0176063 60.0261128,25.0476756 L60.0577646,25.0603363 C60.1115727,25.0835476 60.1643258,25.1057039 60.2160237,25.1268051 L60.2650841,25.1442136 C60.3204748,25.1632047 60.3742829,25.1806133 60.4312562,25.1964392 L60.4660732,25.2059347 C60.5357072,25.2233432 60.6053412,25.2375865 60.6765579,25.2486647 L60.6844708,25.2486647 C60.7515298,25.2595125 60.8191719,25.2663824 60.8870425,25.2692384 L60.9329377,25.2692384 C60.9935622,25.2724117 61.0543112,25.2724117 61.1149357,25.2692384 L61.1545005,25.2692384 C61.230413,25.2648666 61.3059894,25.255882 61.3808111,25.2423343 C61.7349068,25.1957769 62.0748978,25.0738119 62.3778437,24.8846686 C62.4549738,24.8330907 62.5233609,24.7695121 62.5804154,24.6963403 C62.8969337,24.2817013 62.5487636,23.8274975 62.5487636,23.8274975 L62.5487636,23.8274975 C62.4253215,23.5331355 61.6245302,23.325816 61.6245302,23.325816 C61.6245302,23.325816 59.0923838,22.2686449 59.0923838,21.4267062 C59.0923838,20.5847676 58.4593472,16.216815 51.9248269,15.2181998 C51.9248269,15.2181998 47.6739862,14.9792285 46.4791296,17.2549951 L46.4538081,17.5208704 C46.1024728,17.7408506 45.811276,18.1823937 45.4646884,18.3121662 C45.3149499,18.3443272 45.1705443,18.3976134 45.0358061,18.4704253 L45.0358061,18.4403561 L45.0358061,18.4403561 C44.9957955,18.4753499 44.9630026,18.5178194 44.9392681,18.5653808 C44.86482,18.7135133 44.8201904,18.8748253 44.807913,19.0401583 C44.7722588,19.242123 44.7021298,19.4364499 44.6005935,19.614639 C44.572285,19.6652719 44.5405597,19.7139174 44.505638,19.7602374 L44.505638,19.7602374 L44.4787339,19.8029674 C44.6624695,19.817286 44.8469645,19.7874412 45.016815,19.7159248 C44.9900498,19.9325967 44.9369027,20.145185 44.8585559,20.3489614 C45.0640088,20.3556031 45.2544661,20.2418234 45.3459941,20.0577646 L45.3459941,20.0451039 L45.3665678,20.0166172 C45.4063648,19.9433552 45.439215,19.866528 45.4646884,19.7871414 L45.4472799,19.8061325 C45.4789318,19.7032641 45.5074184,19.5988131 45.5422354,19.4975272 C45.5581871,19.4404751 45.5844712,19.386834 45.6197824,19.3392681 C45.7054446,19.2529114 45.8270351,19.2123813 45.9473788,19.2300692 L45.8824926,20.6021761 L45.9109792,20.6021761 C45.87286,20.7019845 45.8262673,20.7983468 45.7717112,20.8902077 C45.5469832,21.2542038 45.1386746,21.5026706 44.9883284,21.9014837 C44.9235039,22.0938354 44.8987293,22.2974184 44.9155292,22.4997033 C44.9155292,22.6183976 44.9297725,22.7386746 44.9392681,22.8573689 L44.9392681,22.8478734 C44.9614243,23.1643917 44.9677547,23.4650841 44.7968348,23.7198813 C44.679723,23.8939664 44.4913947,24.0253215 44.4265084,24.2231454 C44.4085593,24.2782687 44.400522,24.3361369 44.4027695,24.3940653 C44.415467,24.5674952 44.4516702,24.7383957 44.5103858,24.9020772 C44.511072,24.8989492 44.511072,24.8957096 44.5103858,24.8925816 C44.5498568,25.0129867 44.5590964,25.141254 44.5372898,25.2660732 C44.4660732,25.5825915 44.0815035,25.8468843 44.1004946,26.1491592 C44.0994088,26.1889139 44.1053008,26.2285511 44.1179031,26.266271 C44.1918956,26.4139153 44.3200219,26.5273014 44.4755687,26.5827893 C44.7195687,26.7215406 44.9998009,26.783324 45.2795252,26.7600396 C45.3843668,26.7410975 45.4857428,26.7064162 45.5802176,26.6571711 C45.4694362,26.9119683 45.3554896,27.1636004 45.2399604,27.4025717 C45.2225519,27.4405539 45.2035608,27.4785361 45.1845697,27.5165183 C45.1845697,27.5165183 44.2065282,26.862908 43.6510386,28.19545 C43.4888786,28.4723661 43.372887,28.7738373 43.3076162,29.0880317 C43.2797866,29.2137149 43.240588,29.3366078 43.1905045,29.4551929 C42.9438947,29.8726882 42.5748086,30.2042027 42.1333333,30.4047478 C41.0001978,30.9238378 36.4233432,36.6322453 36.3426311,38.1103858 C36.303021,38.6873897 36.2054642,39.2589453 36.0514342,39.8164194 C35.6911476,41.1292435 35.5985769,42.5011199 35.7792285,43.8504451 C35.8357792,44.2865239 35.9294931,44.7169723 36.0593472,45.137092 C36.5452028,46.6136499 36.869634,49.3689416 36.869634,49.3689416 L37.3950544,54.1515331 C37.3755494,54.8116195 37.4041115,55.4722501 37.4805143,56.1281899 C36.9440158,56.7406528 34.7901088,59.2933729 35.6130564,59.9881306 C36.246093,60.5357072 37.353907,60.4454995 37.9758655,60.3331355 C37.4520277,61.6292779 36.6274975,63.8828882 36.5182987,65.4306627 C36.3600396,67.7206726 36.7889219,70.7545005 37.4678536,71.9192878 C38.1467854,73.0840752 40.4098912,76.0720079 40.4098912,76.0720079 C40.4098912,76.0720079 40.3038576,80.1709199 41.1125618,81.6601385 C41.9212661,83.1493571 42.2472799,86.2385757 42.2472799,86.2385757 C42.2472799,86.2385757 43.0021761,88.8466864 42.6239367,89.8057369 C42.2456973,90.7647873 43.3250247,91.5624135 42.1918892,92.2001978 C41.0587537,92.8379822 39.6090999,107.212661 39.6090999,107.212661 C39.6090999,107.212661 39.0251236,116.633828 39.6090999,117.113353 C39.6403491,117.13607 39.673742,117.155682 39.7088032,117.171909 L39.7088032,120.337092 C39.7088032,120.337092 39.3036597,121.00178 40.9511375,121.136301 C42.0795252,121.226508 45.2779426,121.430663 47.1754698,121.549357 L48.6456973,121.641147 C48.6456973,121.641147 52.1273986,122.334322 53.6656775,121.641147 C55.2039565,120.947972 57.9307616,120.963798 57.5256182,119.13274 C57.4718963,118.883557 57.399959,118.638652 57.3103858,118.4 C56.8656775,117.263699 56.1107814,117.133927 54.7196835,116.817409 C54.6389713,116.8 54.5614243,116.784174 54.4902077,116.771513 C53.024728,116.516716 52.5436202,117.198813 51.7222552,116.310979 C51.0085064,115.543422 48.735905,114.684075 47.9620178,114.411869 C47.9810089,114.354896 48.0047478,114.299505 48.0237389,114.24095 C47.8045974,114.203771 47.600778,114.104334 47.4365974,113.9545 L49.5335312,114.087438 L50.7821958,114.164985 C50.7821958,114.164985 53.7416419,114.755292 55.0551929,114.164985 C56.3687438,113.574679 58.6793274,113.590504 58.3343225,112.034817 C58.2888773,111.822827 58.2280503,111.614428 58.1523244,111.411276 C57.7740851,110.445895 57.1315529,110.339862 55.9493571,110.072404 C55.8813056,110.05816 55.818002,110.043917 55.7546983,110.032839 C54.5091988,109.816024 54.1008902,110.395252 53.4029674,109.641939 C52.8047478,108.999407 50.9167161,108.279327 50.2377844,108.034026 C50.2377844,107.68269 49.7630069,107.182591 49.4638971,106.68091 C49.1125618,106.095351 49.7614243,104.045895 49.7614243,104.045895 L50.1317507,95.5426311 C50.2727762,95.479816 50.4219524,95.4371942 50.5748764,95.4160237 C50.5748764,95.4160237 52.2492582,93.8176063 51.8710188,92.1147379 C51.7939517,91.599699 51.7537572,91.0798146 51.7507418,90.5590504 C52.3014837,90.0478734 53.059545,89.2929773 53.2747774,88.8276954 C53.6261128,88.069634 53.2747774,84.3964392 53.2747774,84.3964392 L53.2747774,70.3509397 L56.0759644,70.6342235 L58.6176063,70.8953511 L59.3914936,70.9744807 L61.9331355,71.2308605 L67.7744807,71.8211672 L73.03818,70.8241345 L75.3155292,70.3936696 L79.9984174,69.5074184 L79.9984174,58.049456 L84.8458952,57.2486647 Z M46.2923838,19.2807122 L45.9663699,19.2458952 C46.0739862,19.2506429 46.1879327,19.2712166 46.2923838,19.2807122 Z" id="Shape" fill="url(#linearGradient-1)"></path>
                <path d="M73.4844708,64.6884273 C71.9018793,66.9531157 66.2124629,65.7535114 66.2124629,65.7535114 L61.803363,61.6276954 L61.2098912,61.0690406 L62.2053412,58.9546983 C62.2053412,58.9546983 62.5218595,59.0417409 63.0646884,59.1968348 C65.9149357,60.0245302 74.820178,62.7845697 73.4844708,64.6884273 Z" id="Shape" fill="#EFB7B9"></path>
                <path d="M63.0615232,59.1968348 C62.8668645,59.874184 62.3335312,60.8886251 61.803363,61.6276954 L61.2098912,61.0690406 L62.2053412,58.9546983 C62.2053412,58.9546983 62.5250247,59.0417409 63.0615232,59.1968348 Z" id="Shape" fill="#000000" opacity="0.1"></path>
                <path d="M47.9398615,35.3535114 C47.9398615,35.3535114 43.8757666,37.1560831 44.0751731,41.5825915 C44.2186533,44.4343579 44.5293754,47.2752459 45.0057369,50.0906034 C45.0057369,50.0906034 44.1748764,56.751731 47.6344214,58.4688427 C51.0939664,60.1859545 54.295549,61.5976261 54.295549,61.5976261 C54.295549,61.5976261 59.7080119,62.1800198 60.3806133,62.4205737 C61.0532146,62.6611276 63.1548961,58.983185 62.7671612,58.4102868 C62.3794263,57.8373887 57.4116716,56.6362018 56.778635,55.6803165 C56.1455984,54.7244313 54.6817013,54.1341246 54.6817013,54.1341246 C54.6817013,54.1341246 53.1703264,53.2193867 53.067458,52.393274 C52.9645895,51.5671612 53.3634026,50.9515331 53.4646884,50.5891197 C53.5659743,50.2267062 53.8223541,46.7275964 53.8223541,46.7275964 C53.8223541,46.7275964 55.5283877,34.2726014 47.9398615,35.3535114 Z" id="Shape" fill="#DCE6F2"></path>
                <path d="M50.6223541,49.9086053 C50.6223541,49.9086053 45.0468843,50.8423343 45.586548,52.7936696 C45.586548,52.7936696 47.6106825,50.6872404 50.6223541,49.9086053 Z" id="Shape" fill="#000000" opacity="0.1"></path>
                <path d="M50.6650841,50.6983185 C50.6650841,50.6983185 47.5996044,53.2003956 48.1994065,53.3285856 C48.7992087,53.4567755 50.6650841,50.6983185 50.6650841,50.6983185 Z" id="Shape" fill="#000000" opacity="0.1"></path>
                <path d="M52.1384768,51.5703264 C52.1384768,51.5703264 51.3171118,53.2526212 51.8219585,53.1386746 C52.3268051,53.024728 52.1384768,51.5703264 52.1384768,51.5703264 Z" id="Shape" fill="#000000" opacity="0.1"></path>
                <path d="M63.2672601,59.3756677 L62.9285856,59.2791296 C63.0251236,58.9626113 63.0520277,58.7062315 62.9728981,58.5875371 C62.5851632,58.014639 57.6205737,56.8150346 56.9891197,55.8575668 C56.3576657,54.9000989 54.892186,54.3113749 54.892186,54.3113749 C54.892186,54.3113749 53.3808111,53.396637 53.2779426,52.5705242 C53.1750742,51.7444115 53.5738872,51.1287834 53.6751731,50.7663699 C53.776459,50.4039565 54.0328388,46.9032641 54.0328388,46.9032641 C54.0328388,46.9032641 55.7341246,34.4498516 48.1455984,35.5307616 C48.1455984,35.5307616 44.0815035,37.3349159 44.2793274,41.7614243 C44.4228621,44.6132594 44.7341157,47.4541751 45.2114738,50.2694362 C45.2114738,50.2694362 44.3806133,56.9305638 47.8401583,58.6476756 C51.2997033,60.3647873 54.5012859,61.776459 54.5012859,61.776459 C54.5012859,61.776459 59.9121662,62.35727 60.5863501,62.5994065 C60.8411474,62.6911968 61.3016815,62.218002 61.7527201,61.5675569 L62.0090999,61.8065282 L66.4181998,65.9307616 C66.4181998,65.9307616 72.1076162,67.1319486 73.6902077,64.8672601 C75.0274975,62.96182 66.1238378,60.2017804 63.2672601,59.3756677 Z" id="Shape" fill="#000000" opacity="0.1"></path>
                <path d="M45.6007913,18.7394659 C45.4458613,18.7697521 45.2974714,18.8270724 45.1624135,18.9088032 C45.0041543,19.0401583 45.0041543,19.2648863 44.9645895,19.4611276 C44.9181124,19.7341135 44.8098489,19.9928633 44.6480712,20.2176063 C44.8281569,20.2308179 45.0088012,20.2009818 45.1750742,20.1305638 C45.1479858,20.3471754 45.0948483,20.559725 45.016815,20.7636004 C45.2182291,20.7687238 45.4039769,20.6554176 45.4915925,20.4739862 C45.5753313,20.2956514 45.6415825,20.1096179 45.6894164,19.9184965 C45.7042816,19.8613334 45.7300781,19.8075906 45.7653808,19.7602374 C45.9109792,19.5877349 46.1816024,19.6652819 46.4063304,19.6874382 C46.7871869,19.7195509 47.1555161,19.542656 47.368546,19.2253215 C47.6075173,18.862908 47.6217606,17.9355094 47.0520277,17.8373887 C46.4569733,17.7392681 46.0866469,18.5590504 45.6007913,18.7394659 Z" id="Shape" fill="#965D7B"></path>
                <g id="Group" opacity="0.1" transform="translate(44.629080, 18.832839)" fill="#000000">
                    <path d="M0.696805789,0.270623145 C0.72126231,0.193076162 0.737566658,0.112363996 0.767457962,0.0348170129 L0.767457962,0.0348170129 C0.509305789,0.166172107 0.495718832,0.389317507 0.427784049,0.587141444 C0.393556191,0.701280348 0.339847827,0.813144006 0.267457962,0.921068249 C0.481421272,0.722454681 0.627228133,0.50156301 0.696805789,0.270623145 L0.696805789,0.270623145 Z" id="Shape"></path>
                    <path d="M0.568150346,1.57784372 C0.646958745,1.37421339 0.700120282,1.16156724 0.726409496,0.944807122 C0.567950909,1.01150403 0.396392973,1.0412696 0.224727992,1.03184965 C0.174758707,1.14315575 0.11378968,1.24918885 0.0427299703,1.34836795 C0.222181878,1.36225372 0.402349239,1.33294939 0.568150346,1.26290801 C0.541861133,1.47966813 0.488699596,1.69231428 0.409891197,1.89594461 C0.611197422,1.90066545 0.796744474,1.78748175 0.884668645,1.60633037 C0.924096668,1.53439716 0.955920401,1.45855059 0.979624135,1.38001978 C0.885254157,1.51190872 0.730092794,1.58650552 0.568150346,1.57784372 L0.568150346,1.57784372 Z" id="Shape"></path>
                    <path d="M1.95766568,0.501681503 C1.73293769,0.479525223 1.46073195,0.401978239 1.31513353,0.574480712 C1.28047332,0.622219809 1.25473728,0.67583657 1.23916914,0.732739862 C1.22492582,0.77388724 1.21226508,0.816617211 1.20118694,0.859347181 C1.35153314,0.740652819 1.59525223,0.803956479 1.79940653,0.824530168 C2.18007334,0.855614857 2.54790847,0.678957195 2.76162216,0.362413452 C2.80959068,0.285566402 2.84535972,0.201749401 2.86765579,0.113946588 C2.6475724,0.386337065 2.30657284,0.53163253 1.95766568,0.501681503 Z" id="Shape"></path>
                </g>
                <polygon id="Shape" fill="#DCE6F2" points="50.3643917 31.810089 52.7778437 34.7125618 52.462908 37.6419387 49.5461919 33.0761622"></polygon>
                <polygon id="Shape" fill="#000000" opacity="0.1" points="52.7762611 34.7125618 52.4803165 37.4678536 52.4613254 37.6419387 49.8294758 33.5208704 49.5461919 33.0761622 49.6284866 32.9479723 50.3628091 31.810089 50.525816 32.0063304"></polygon>
                <path d="M54.0296736,27.8805143 C53.2130564,28.1147379 52.4328388,28.9186944 51.753907,29.8951533 C51.2950184,30.5688792 50.8846197,31.2743842 50.525816,32.0063304 C50.3026706,32.4526212 50.1064293,32.8815035 49.9434224,33.2549951 L49.8294758,33.5208704 C49.5541048,34.1713155 49.4005935,34.6065282 49.4005935,34.6065282 C49.4005935,34.6065282 43.1493571,29.9062315 44.1384768,29.5897132 C44.470821,29.4836795 44.9076162,28.7715134 45.3396637,27.874184 L45.3934718,27.7602374 C45.6672601,27.1841741 45.9363007,26.5416419 46.175272,25.937092 C46.6642928,24.6947577 47.0267062,23.6154303 47.0267062,23.6154303 C47.0267062,23.6154303 56.5222552,27.1683482 54.0296736,27.8805143 Z" id="Shape" fill="#EFB7B9"></path>
                <path d="M57.7693373,23.3511375 C57.7693373,23.3511375 59.2126607,25.9624135 61.1513353,25.6063304 C63.0900099,25.2502473 62.2923838,24.2041543 62.2923838,24.2041543 L57.7693373,23.3511375 Z" id="Shape" fill="#444053"></path>
                <path d="M54.9728981,113.740851 C53.6941642,114.324827 50.8027695,113.740851 50.8027695,113.740851 L49.5841741,113.664886 C48.0015826,113.5636 45.3523244,113.392681 44.4154303,113.316716 C43.0480712,113.204352 43.3835806,112.644115 43.3835806,112.644115 L43.3835806,109.258952 L50.0178042,107.578239 C50.0178042,107.578239 52.6401583,108.475569 53.3586548,109.258952 C54.0407517,110.005935 54.4395648,109.431454 55.6565776,109.646686 C55.7167161,109.657765 55.7800198,109.670425 55.8464886,109.686251 C57.0017804,109.950544 57.6284866,110.054995 57.9988131,111.012463 C58.0732298,111.213618 58.1329967,111.419893 58.1776459,111.629674 C58.5194857,113.171118 56.2500495,113.16004 54.9728981,113.740851 Z" id="Shape" fill="#A36468"></path>
                <path d="M57.9988131,111.012463 C57.7610887,111.161005 57.5111996,111.289126 57.2518299,111.39545 C56.3814045,111.792681 55.5537092,112.276954 54.6737883,112.652028 C53.7938675,113.027102 52.8458952,113.29456 51.8931751,113.223343 C51.3946588,113.186944 50.8850643,113.065084 50.4087043,113.207517 C50.1141053,113.321266 49.8366377,113.475178 49.5841741,113.664886 C48.0015826,113.5636 45.3523244,113.392681 44.4154303,113.316716 C43.0480712,113.204352 43.3835806,112.644115 43.3835806,112.644115 L43.3835806,112.248467 C43.4326409,112.248467 43.4880317,112.234224 43.5513353,112.229476 C43.8788475,112.224241 44.2049918,112.272896 44.5167161,112.373492 C45.2035608,112.560237 45.8872404,112.743818 46.5740851,112.927399 C46.6882552,112.496576 46.9743338,112.13154 47.3653808,111.917705 C47.7574105,111.709598 48.1974074,111.608606 48.6409496,111.624926 C49.7060336,111.639169 50.7141444,112.144016 51.7776459,112.194659 C52.074975,112.221997 52.3743149,112.171834 52.6464886,112.04906 C52.792087,111.976261 52.920277,111.870227 53.0627102,111.789515 C53.2906588,111.679247 53.5314971,111.597904 53.7796241,111.547379 C54.4770367,111.373776 55.1617813,111.152754 55.8290801,110.885856 C56.0189911,110.811474 56.2405539,110.676954 56.2152324,110.474382 C56.181998,110.205341 55.7594461,110.173689 55.6486647,109.926805 C55.6090389,109.836554 55.6137196,109.732995 55.6613254,109.646686 C55.7214639,109.657765 55.7847676,109.670425 55.8512364,109.686251 C57.0017804,109.950544 57.6284866,110.054995 57.9988131,111.012463 Z" id="Shape" fill="#000000" opacity="0.1"></path>
                <path d="M53.621365,121.147379 C52.1179031,121.834224 48.7153314,121.147379 48.7153314,121.147379 L47.2830861,121.063501 C45.4282888,120.944807 42.3042532,120.746983 41.2011869,120.65361 C39.5916914,120.520673 39.9873393,119.862315 39.9873393,119.862315 L39.9873393,115.872601 L47.7942631,113.894362 C47.7942631,113.894362 50.8803165,114.949951 51.7254204,115.872601 C52.5277943,116.75094 52.9914936,116.075173 54.4300692,116.328388 C54.5012859,116.341048 54.5756677,116.356874 54.6532146,116.374283 C56.0126607,116.690801 56.7501484,116.809496 57.185361,117.936301 C57.2734739,118.172871 57.3438304,118.41568 57.3958457,118.66271 C57.7883284,120.47636 55.1248269,120.462117 53.621365,121.147379 Z" id="Shape" fill="#A36468"></path>
                <path d="M57.1821958,117.936301 C56.9025518,118.110957 56.608741,118.261833 56.3038576,118.387339 C55.2799209,118.854204 54.3050445,119.423937 53.2700297,119.86548 C52.2350148,120.307023 51.1192878,120.620376 49.9972305,120.538081 C49.4116716,120.495351 48.8118694,120.34817 48.2563798,120.51909 C47.9083172,120.654643 47.5807592,120.837863 47.2830861,121.063501 C45.4282888,120.944807 42.3042532,120.746983 41.2011869,120.65361 C39.5916914,120.520673 39.9873393,119.862315 39.9873393,119.862315 L39.9873393,119.397033 C40.052867,119.386332 40.1188919,119.378937 40.1851632,119.374876 C40.5707053,119.367834 40.9547276,119.425063 41.3214639,119.544214 L43.7412463,120.196241 C43.8774766,119.687946 44.2168792,119.258112 44.679723,119.007715 C45.1409927,118.76182 45.6592649,118.642765 46.1816024,118.66271 C47.4350148,118.680119 48.6203759,119.273591 49.8722057,119.333729 C50.2208324,119.365531 50.5717826,119.30722 50.8913947,119.164392 C51.0638971,119.077349 51.207913,118.952324 51.381998,118.858952 C51.649654,118.72788 51.933199,118.632123 52.2255193,118.574085 C53.0416674,118.368135 53.8431803,118.108014 54.624728,117.79545 C54.8478734,117.706825 55.109001,117.548566 55.0789318,117.311177 C55.039367,116.994659 54.5424332,116.956677 54.4110781,116.66548 C54.3662295,116.559019 54.3720492,116.437968 54.4269041,116.336301 C54.4981207,116.348961 54.5725025,116.364787 54.6500495,116.382196 C56.0094955,116.686053 56.7469832,116.809496 57.1821958,117.936301 Z" id="Shape" fill="#000000" opacity="0.1"></path>
                <path d="M50.2187933,93.7701286 L49.7962413,103.713551 C49.7962413,103.713551 49.1632047,105.744016 49.5066271,106.324827 C49.8500495,106.905638 50.4292779,107.484866 50.2187933,107.828289 C50.0083086,108.171711 47.4761622,111.884471 46.6579624,110.460138 C45.8397626,109.035806 45.0326409,102.863699 45.0326409,102.863699 L45.7875371,95.2403561 L50.2187933,93.7701286 Z" id="Shape" fill="#444053"></path>
                <path d="M52.0514342,68.9962413 L53.2257171,70.5661721 L53.2257171,84.2207715 C53.2257171,84.2207715 53.5691395,87.8607319 53.2257171,88.6124629 C52.8822948,89.3641939 51.1414441,90.8676558 51.1414441,90.8676558 L49.677547,83.3503462 L49.9940653,75.3978239 L52.0514342,68.9962413 Z" id="Shape" fill="#444053"></path>
                <path d="M50.2187933,93.7701286 L49.7962413,103.713551 C49.7962413,103.713551 49.1632047,105.744016 49.5066271,106.324827 C49.8500495,106.905638 50.4292779,107.484866 50.2187933,107.828289 C50.0083086,108.171711 47.4761622,111.884471 46.6579624,110.460138 C45.8397626,109.035806 45.0326409,102.863699 45.0326409,102.863699 L45.7875371,95.2403561 L50.2187933,93.7701286 Z" id="Shape" fill="#000000" opacity="0.1"></path>
                <path d="M52.0514342,68.9962413 L53.2257171,70.5661721 L53.2257171,84.2207715 C53.2257171,84.2207715 53.5691395,87.8607319 53.2257171,88.6124629 C52.8822948,89.3641939 51.1414441,90.8676558 51.1414441,90.8676558 L49.677547,83.3503462 L49.9940653,75.3978239 L52.0514342,68.9962413 Z" id="Shape" fill="#000000" opacity="0.1"></path>
                <path d="M53.2257171,63.1723046 L53.2257171,70.5582591 L51.9074184,76.307814 C51.9074184,76.307814 51.4848665,90.1823937 51.8536103,91.8694362 C52.2223541,93.5564787 50.5875371,95.1406528 50.5875371,95.1406528 C50.5875371,95.1406528 49.6379822,95.2466864 49.6379822,95.9841741 C49.6379822,96.7216617 48.0553907,98.8328388 48.0553907,98.8328388 L48.1076162,102.947577 C48.1076162,102.947577 48.7944609,110.650049 47.7388724,112.126607 C46.6832839,113.603165 48.1076162,113.815232 48.1076162,113.815232 C46.7893175,118.140455 40.4589515,117.138675 39.887636,116.663897 C39.3163205,116.18912 39.887636,106.85183 39.887636,106.85183 C39.887636,106.85183 41.3024728,92.6085064 42.4102868,91.9754698 C43.5181009,91.3424332 42.464095,90.5511375 42.8328388,89.6015826 C43.2015826,88.6520277 42.464095,86.0676558 42.464095,86.0676558 C42.464095,86.0676558 42.1475767,83.0069238 41.3562809,81.530366 C40.5649852,80.0538081 40.6694362,75.9912957 40.6694362,75.9912957 C40.6694362,75.9912957 38.4538081,73.0365974 37.79545,71.8765579 C37.137092,70.7165183 36.7129575,67.7095945 36.8712166,65.4401583 C36.9788328,63.9066271 37.7843719,61.6735905 38.295549,60.3885262 C38.5408506,59.7728981 38.7181009,59.3740851 38.7181009,59.3740851 L38.8684471,59.4136499 L47.5125618,61.6767557 L53.2257171,63.1723046 Z" id="Shape" fill="#444053"></path>
                <path d="M54.0296736,27.8805143 C53.2130564,28.1147379 52.4328388,28.9186944 51.753907,29.8951533 L51.5766568,29.8951533 C49.5510319,29.8965857 47.6794658,28.814096 46.6706231,27.0575668 C46.4634993,26.6999927 46.2968281,26.3204709 46.1736894,25.9260138 C46.6627102,24.6836795 47.0251236,23.6043521 47.0251236,23.6043521 C47.0251236,23.6043521 56.5222552,27.1683482 54.0296736,27.8805143 Z" id="Shape" fill="#000000" opacity="0.1"></path>
                <path d="M57.2344214,23.9240356 C57.2382649,26.2970542 55.7608413,28.4203136 53.534416,29.2414484 C51.3079907,30.0625832 48.8057251,29.4070854 47.2678338,27.5998437 C45.7299426,25.7926021 45.4832594,23.2176927 46.6500495,21.1513353 C46.8215615,20.844959 47.021873,20.5556201 47.248269,20.2872404 C47.6214718,19.8426228 48.0601158,19.4573418 48.5491592,19.1446093 C50.2295106,18.0767915 52.3474376,17.9707614 54.1260364,18.8654131 C55.9046352,19.7600649 57.0820995,21.5237075 57.2265084,23.5093966 C57.2296736,23.6486647 57.2344214,23.7863501 57.2344214,23.9240356 Z" id="Shape" fill="#EFB7B9"></path>
                <path d="M52.4803165,37.4678536 L52.4613254,37.6419387 L49.8294758,33.5272008 C49.5541048,34.1776459 49.4005935,34.6128586 49.4005935,34.6128586 C49.4005935,34.6128586 43.1493571,29.9062315 44.1384768,29.5897132 C44.470821,29.4836795 44.9076162,28.7715134 45.3396637,27.874184 L45.3934718,27.7602374 C45.8524233,29.1275964 48.51909,31.8607319 49.6284866,32.9558853 C49.7566766,33.0824926 49.8627102,33.1869436 49.9450049,33.262908 L50.1143422,33.4211672 L50.2029674,33.5097923 C50.6065282,33.9260138 52.3093966,35.76182 52.4803165,37.4678536 Z" id="Shape" fill="#000000" opacity="0.1"></path>
                <path d="M54.4474777,51.4294758 L54.1594461,60.6987141 L54.1088032,62.3493571 C54.1088032,62.3493571 50.6967359,62.0328388 47.5125618,61.6846686 C44.9487636,61.40455 42.5321464,61.102275 42.1602374,60.9250247 C41.6854599,60.7018793 40.6678536,60.5293769 39.8654797,60.420178 C39.2451039,60.3363007 38.7576657,60.2919881 38.7576657,60.2919881 C38.7576657,60.2919881 38.5756677,60.3457962 38.295549,60.3964392 C37.6846686,60.5072206 36.6116716,60.5974283 35.986548,60.0545994 C35.1873393,59.3598417 37.2874382,56.8356083 37.811276,56.2294758 L37.9268051,56.0981207 L37.7289812,54.2702275 L37.214639,49.530366 C37.214639,49.530366 36.8981207,46.8003956 36.4233432,45.3364985 C36.2964122,44.9202925 36.2048246,44.4941189 36.1495549,44.0625124 C35.9731515,42.725493 36.063518,41.3667682 36.4154303,40.0648863 C36.5657843,39.511695 36.6612018,38.9450211 36.7002967,38.3730959 C36.7794263,36.9091988 41.2502473,31.2514342 42.3580613,30.737092 C42.8564061,30.504699 43.2574108,30.1048144 43.4911968,29.6071217 C43.5683782,29.4506344 43.6263017,29.2853665 43.6636993,29.1149357 C44.1384768,27.0575668 45.3396637,27.874184 45.3396637,27.874184 C45.6292779,29.4836795 50.1127596,33.7440158 50.1127596,33.7440158 L50.2013848,33.8326409 C50.646093,34.2884273 52.6274975,36.428091 52.4866469,38.2544016 C52.4585018,38.9341397 52.5600119,39.6130221 52.7857567,40.2547972 C53.6977286,43.1263659 54.2219834,46.1069006 54.3446093,49.1173096 L54.4474777,51.4294758 Z" id="Shape" fill="#DCE6F2"></path>
                <path d="M48.0949555,40.4225519 C48.0949555,40.4225519 46.9871414,43.1129575 46.1562809,43.5481701 C45.3254204,43.9833828 48.4906034,44.4660732 48.0949555,40.4225519 Z" id="Shape" fill="#000000" opacity="0.1"></path>
                <path d="M48.925816,45.4472799 C48.925816,45.4472799 46.3936696,45.7637982 46.3936696,46.2385757 C46.3936696,46.7133531 48.925816,45.4472799 48.925816,45.4472799 Z" id="Shape" fill="#000000" opacity="0.1"></path>
                <path d="M51.5766568,48.5333333 C51.5766568,48.5333333 47.8971316,56.3671612 46.8684471,56.60455 C45.8397626,56.8419387 51.5766568,48.5333333 51.5766568,48.5333333 Z" id="Shape" fill="#000000" opacity="0.1"></path>
                <path d="M50.0431256,34.1412463 L46.9998022,35.4642928 L43.3266073,29.915727 C43.4037887,29.7592397 43.4617122,29.5939718 43.4991098,29.423541 C43.9738872,27.3661721 45.1750742,28.1827893 45.1750742,28.1827893 C45.4646884,29.7922849 49.9481701,34.0526212 49.9481701,34.0526212 L50.0431256,34.1412463 Z" id="Shape" fill="#000000" opacity="0.1"></path>
                <path d="M50.2013848,33.824728 L47.1580613,35.1477745 L43.4848665,29.5992087 C43.5620478,29.4427214 43.6199713,29.2774535 43.6573689,29.1070227 C44.1321464,27.0496538 45.3333333,27.866271 45.3333333,27.866271 C45.6229476,29.4757666 50.1064293,33.7361029 50.1064293,33.7361029 L50.2013848,33.824728 Z" id="Shape" fill="#DCE6F2"></path>
                <path d="M54.1088032,62.3493571 C54.1088032,62.3493571 50.6967359,62.0328388 47.5125618,61.6846686 L53.2257171,63.1802176 L53.2257171,64.9210682 C52.9756677,65.1473788 52.7588526,65.2644906 52.618002,65.2043521 C51.9596439,64.9273986 46.5867458,64.0569733 46.5867458,64.0569733 C46.5867458,64.0569733 43.4658754,62.4743818 40.0981207,60.575272 C40.0163753,60.529986 39.9371307,60.4803261 39.8607319,60.4265084 C39.4680514,60.1598951 39.1296894,59.8209961 38.8636993,59.4278932 C38.2417409,58.5273986 37.9378833,57.3705242 37.8065282,56.2358061 C37.7326825,55.5855003 37.7051815,54.9307657 37.7242334,54.2765579 C37.7405464,53.5347502 37.8082323,52.7949639 37.9268051,52.0625124 C37.6011051,49.2256221 37.4425721,46.3720283 37.4520277,43.5165183 C37.4915925,39.0852621 41.6458952,37.5026706 41.6458952,37.5026706 C49.2818991,36.8300692 46.9143422,49.1742829 46.9143422,49.1742829 C46.9143422,49.1742829 46.4727992,52.6559842 46.3525223,53.0120673 C46.2322453,53.3681503 45.8001978,53.9616222 45.8587537,54.7924827 C45.9173096,55.6233432 47.376459,56.6172107 47.376459,56.6172107 C47.376459,56.6172107 48.8007913,57.2850643 49.3879327,58.274184 C49.8152324,59.0037587 52.5910979,59.9928783 54.1594461,60.6987141 L54.1088032,62.3493571 Z" id="Shape" fill="#000000" opacity="0.1"></path>
                <path d="M56.666271,20.4106825 C56.6691853,20.6713532 56.6151756,20.9295194 56.5080119,21.1671612 C56.4268803,21.3610797 56.3327665,21.5493075 56.2263106,21.7305638 C56.0597472,22.0639817 55.8233286,22.3576158 55.5331355,22.5914936 C55.1675569,22.8526212 54.7054402,22.9254204 54.2670623,23.031454 C53.8286845,23.1374876 53.3728981,23.3068249 53.1228487,23.6803165 C52.9873322,23.9204145 52.8966993,24.1831963 52.8553907,24.4557864 C52.8134668,24.7281417 52.7047213,24.9858684 52.5388724,25.2059347 C52.3612491,25.4269311 52.0566454,25.4998277 51.7982196,25.383185 C51.6658632,25.2939556 51.5654957,25.1647532 51.5117705,25.0144411 C51.3313551,24.6077151 51.2854599,24.1566766 51.2126607,23.7182987 C51.1398615,23.2799209 51.0369931,22.8288823 50.7679525,22.4759644 C50.498912,22.1230465 50.0225519,21.8904055 49.6,22.028091 C49.3142245,22.1381077 49.0856309,22.3598435 48.9669634,22.6421365 C48.8500169,22.9218267 48.769695,23.2154539 48.7279921,23.515727 C48.5317507,24.5897791 48.3001649,25.6575008 48.0332344,26.7188922 C48.0250907,26.7624012 48.0072393,26.8035135 47.9810089,26.8391691 C47.9389351,26.8811049 47.8821496,26.9049548 47.8227498,26.905638 C47.4682493,26.9531157 47.1279921,26.7046489 46.7703264,26.7315529 C46.7334714,26.7340077 46.696919,26.7398349 46.6611276,26.7489614 C45.4765622,24.6902567 45.704801,22.1107157 47.2324431,20.2919881 L47.2609298,20.2840752 C47.4988519,20.1996153 47.7150629,20.0634024 47.8939664,19.8852621 C48.1224224,19.6566471 48.33399,19.4117576 48.527003,19.1525223 L48.6536103,18.9942631 C49.0173783,18.5560321 49.431734,18.1623942 49.8880317,17.8215628 C50.0125865,17.7195204 50.155463,17.6421738 50.309001,17.5936696 C50.4403975,17.5680717 50.5750585,17.5637967 50.707814,17.5810089 C51.2543599,17.6466195 51.8053688,17.6672624 52.3552918,17.64273 C52.7384757,17.5824955 53.1246847,17.5433991 53.5121662,17.5256182 C54.5139466,17.5541048 55.368546,18.2615232 56.0015826,19.0369931 C56.3418398,19.4342235 56.6456973,19.8915925 56.666271,20.4106825 Z" id="Shape" fill="#000000" opacity="0.1"></path>
                <path d="M45.9109792,21.3016815 C45.690999,21.6625124 45.2937685,21.907814 45.1450049,22.3034619 C44.9266073,22.8779426 45.2953511,23.593274 44.9566766,24.1060336 C44.8443126,24.2785361 44.6591494,24.406726 44.5958457,24.60455 C44.4882295,24.9384768 44.7825915,25.2945598 44.7066271,25.6379822 C44.6306627,25.9814045 44.1780415,26.2710188 44.2983185,26.6065282 C44.3693964,26.7528502 44.4940747,26.8661941 44.6464886,26.9230465 C44.8862912,27.0606089 45.1622995,27.1218828 45.4377844,27.0987141 C45.8698318,27.0274975 46.1910979,26.603363 46.6294758,26.5717112 C46.9855589,26.5463897 47.325816,26.793274 47.6803165,26.7473788 C47.7397296,26.7453116 47.7962046,26.7210273 47.8385757,26.6793274 C47.8654697,26.6440572 47.8833922,26.6027812 47.8908012,26.5590504 C48.1566766,25.4987141 48.38879,24.4309924 48.5871414,23.3558853 C48.6275577,23.0555258 48.7073742,22.761801 48.8245302,22.4822948 C48.9441158,22.2006302 49.1723914,21.9792029 49.4575668,21.8682493 C49.8801187,21.7321464 50.3548961,21.9632047 50.6255193,22.3161227 C50.8961424,22.6690406 50.9990109,23.1200791 51.0718101,23.558457 C51.1446093,23.9968348 51.1905045,24.4478734 51.3693373,24.8545994 C51.4236764,25.0054464 51.5245391,25.1351271 51.6573689,25.2249258 C51.8947577,25.3626113 52.2144411,25.2534125 52.3964392,25.0476756 C52.5631689,24.8275218 52.6719975,24.569054 52.7129575,24.2959446 C52.7542453,24.0238488 52.8448854,23.7615827 52.9804154,23.5220574 C53.2304649,23.1485658 53.6878338,22.9792285 54.1246291,22.8731949 C54.5614243,22.7671612 55.0219585,22.6927794 55.3907023,22.4316518 C55.6805075,22.198021 55.9168741,21.9049912 56.0838773,21.5723046 C56.3181009,21.163996 56.5364985,20.7208704 56.5175074,20.2508408 C56.4969337,19.7380811 56.1930762,19.2807122 55.8686449,18.8818991 C55.2356083,18.1064293 54.3794263,17.3990109 53.3776459,17.3721068 C52.9900503,17.3883142 52.6037518,17.4274196 52.2207715,17.4892186 C51.6708073,17.5139501 51.1197386,17.4927755 50.5732938,17.4259149 C50.440419,17.410021 50.3058831,17.4148259 50.1744807,17.4401583 C50.0207639,17.4871032 49.8781151,17.5646181 49.755094,17.6680514 C49.2983507,18.0083156 48.8834661,18.4014201 48.51909,18.8391691 C48.2841481,19.1506866 48.029349,19.4467187 47.7562809,19.7254204 C47.5773044,19.9038438 47.3611501,20.0405614 47.1232443,20.125816 C46.9649852,20.1701286 46.806726,20.1384768 46.6563798,20.1875371 C46.1895153,20.3347181 46.1277943,20.9440158 45.9109792,21.3016815 Z" id="Shape" fill="#965D7B"></path>
                <path d="M61.1513353,25.6047478 C59.8852621,25.8373887 58.836004,24.813452 58.2551929,24.0664688 C58.0768082,23.83961 57.9144624,23.6005863 57.7693373,23.3511375 L62.1151335,24.1709199 L62.2908012,24.2041543 C62.2908012,24.2041543 63.0900099,25.2502473 61.1513353,25.6047478 Z" id="Shape" fill="#000000" opacity="0.1"></path>
                <g id="Group" opacity="0.1" transform="translate(44.154303, 19.940653)" fill="#000000">
                    <path d="M0.843552281,5.24470821 C0.899507606,5.03773385 0.800140694,4.82950359 0.553552281,4.63699308 C0.553552281,4.65281899 0.508552281,4.66864491 0.493552281,4.68447082 C0.278552281,4.89653808 0.568552281,5.1165183 0.753552281,5.33649852 C0.79328434,5.30694408 0.823438799,5.27618978 0.843552281,5.24470821 L0.843552281,5.24470821 Z" id="Shape"></path>
                    <path d="M0.94991076,2.65400593 C0.898470537,2.87284657 0.911862284,3.09273085 0.98991076,3.3107814 C1.04117571,3.09193925 1.02778427,2.87206015 0.94991076,2.65400593 L0.94991076,2.65400593 Z" id="Shape"></path>
                    <path d="M11.9200791,1.17428289 C11.7535158,1.50770082 11.5170972,1.80133489 11.2269041,2.03521266 C10.8613254,2.29634026 10.4007913,2.36913947 9.96083086,2.4751731 C9.52087043,2.58120673 9.06666667,2.75054402 8.81661721,3.12403561 C8.68132606,3.36423496 8.59070775,3.62697444 8.54915925,3.89950544 C8.50793828,4.17254153 8.39913588,4.43094724 8.23264095,4.6512364 C8.05064293,4.85697329 7.73095945,4.9677547 7.49357072,4.82848665 C7.3607409,4.73868796 7.25987815,4.60900728 7.20553907,4.45816024 C7.02670623,4.05143422 6.97922849,3.60197824 6.90801187,3.1620178 C6.83679525,2.72205737 6.73076162,2.27260138 6.46172107,1.91968348 C6.19268051,1.56676558 5.71632047,1.33412463 5.29376855,1.47181009 C5.00829438,1.58229766 4.77986092,1.80387812 4.66073195,2.08585559 C4.54357596,2.36536186 4.46375945,2.65908662 4.42334322,2.95944609 C4.22604682,4.03455325 3.9939334,5.10227498 3.72700297,6.16261128 C3.71959394,6.20634202 3.70167145,6.24761806 3.67477745,6.28288823 C3.6324064,6.32458818 3.57593141,6.34887242 3.5165183,6.35093966 C3.1620178,6.39683482 2.82176063,6.14995054 2.46567755,6.17527201 C2.0272997,6.20692384 1.70603363,6.63105836 1.27398615,6.70069238 C0.998399208,6.72540841 0.721930689,6.6640324 0.482690406,6.52502473 C0.372689523,6.47769798 0.273978962,6.40757573 0.193076162,6.31928783 C0.118049444,6.42672173 0.0964657513,6.56264065 0.134520277,6.68803165 C0.2042293,6.83537282 0.329392003,6.9491571 0.482690406,7.00454995 C0.721930689,7.14355762 0.998399208,7.20493363 1.27398615,7.18021761 C1.70603363,7.11058358 2.0272997,6.68644906 2.46567755,6.65479723 C2.82176063,6.62947577 3.1620178,6.87636004 3.5165183,6.83046489 C3.57593141,6.82839765 3.6324064,6.8041134 3.67477745,6.76241345 C3.70167145,6.72714328 3.71959394,6.68586725 3.72700297,6.6421365 C3.99287834,5.5870755 4.22499176,4.51935378 4.42334322,3.43897132 C4.46375945,3.13861184 4.54357596,2.84488708 4.66073195,2.56538081 C4.77986092,2.28340334 5.00829438,2.06182289 5.29376855,1.95133531 C5.71632047,1.81364985 6.19109792,2.0462908 6.46172107,2.3992087 C6.73234421,2.75212661 6.83521266,3.20316518 6.90801187,3.64154303 C6.98081108,4.07992087 7.02670623,4.53095945 7.20553907,4.93768546 C7.25987815,5.0885325 7.3607409,5.21821318 7.49357072,5.30801187 C7.73095945,5.44569733 8.05064293,5.33649852 8.23264095,5.13076162 C8.39913588,4.91047246 8.50793828,4.65206676 8.54915925,4.37903066 C8.59070775,4.10649966 8.68132606,3.84376018 8.81661721,3.60356083 C9.06666667,3.23006924 9.52403561,3.06231454 9.96083086,2.95469832 C10.3976261,2.8470821 10.8581602,2.77586548 11.2269041,2.51473788 C11.5170972,2.28086012 11.7535158,1.98722605 11.9200791,1.65380811 C12.1543027,1.2470821 12.3727003,0.803956479 12.3537092,0.333926805 C12.350595,0.273493141 12.3442556,0.213268907 12.3347181,0.153511375 C12.2583622,0.51573542 12.1179459,0.861416761 11.9200791,1.17428289 L11.9200791,1.17428289 Z" id="Shape"></path>
                </g>
                <path d="M56.5143422,21.1624135 C56.9201878,21.8839972 57.1607288,22.6867016 57.2185955,23.5125618 C55.8085064,22.7212661 54.4822948,21.8524233 53.8128586,21.5501484 C52.6464886,21.0231454 48.2848665,21.102275 46.6453017,21.1513353 C46.8168137,20.844959 47.0171253,20.5556201 47.2435213,20.2872404 C47.6181661,19.8422533 48.0584321,19.4569539 48.5491592,19.1446093 C49.86258,18.3110545 51.4611397,18.0547153 52.9693365,18.435806 C54.4775334,18.8168966 55.7624484,19.8018311 56.5222552,21.1592483 L56.5143422,21.1624135 Z" id="Shape" fill="#000000" opacity="0.1"></path>
                <path d="M61.5469832,24.933729 C60.7857567,25.1679525 59.5434224,24.7153314 58.2551929,24.0664688 C58.0768082,23.83961 57.9144624,23.6005863 57.7693373,23.3511375 L62.1151335,24.1709199 C62.4031652,24.3671612 62.4759644,24.6472799 61.5469832,24.933729 Z" id="Shape" fill="#000000" opacity="0.1"></path>
                <path d="M51.9137488,15.6755687 C51.9137488,15.6755687 47.7594461,15.43818 46.5914936,17.6933729 L46.4031652,19.692186 L46.0866469,19.6573689 L46.0233432,21.016815 C46.0233432,21.016815 52.3727003,20.7398615 53.8176063,21.3918892 C55.2625124,22.0439169 59.7523244,25.3293769 61.551731,24.7754698 C63.3511375,24.2215628 61.3934718,23.7072206 61.3934718,23.7072206 C61.3934718,23.7072206 58.9167161,22.6579624 58.9167161,21.8350148 C58.9167161,21.0120673 58.3026706,16.6646884 51.9137488,15.6755687 Z" id="Shape" fill="#444053"></path>
                <path d="M43.901088,89.7725025 C43.901088,89.7725025 46.5519288,92.3442136 47.6993076,92.1463897 C47.6993076,92.1463897 44.4549951,91.8694362 43.901088,89.7725025 Z" id="Shape" fill="#000000" opacity="0.1"></path>
                <path d="M43.347181,90.9641939 C43.347181,90.9641939 43.5845697,92.2872404 44.2176063,92.1574679 C44.8506429,92.0276954 43.347181,90.9641939 43.347181,90.9641939 Z" id="Shape" fill="#000000" opacity="0.1"></path>
                <path d="M47.5014837,113.076162 C47.5014837,113.076162 43.7380811,116.003956 44.3727003,116.083086 C45.0073195,116.162216 47.5014837,113.076162 47.5014837,113.076162 Z" id="Shape" fill="#000000" opacity="0.1"></path>
                <polygon id="Shape" fill="#1281AC" points="52.5357072 54.9681503 64.7216617 52.9851632 64.7216617 64.5222552 53.1434224 63.9161227"></polygon>
                <polygon id="Shape" fill="#000000" opacity="0.05" points="52.5357072 54.9681503 64.7216617 52.9851632 64.7216617 64.5222552 53.1434224 63.9161227"></polygon>
                <polygon id="Shape" fill="#1281AC" points="64.7216617 52.9851632 79.3353116 54.0787339 78.5266073 64.1186944 64.7216617 64.5222552"></polygon>
                <polygon id="Shape" fill="#000000" opacity="0.1" points="64.7216617 52.9851632 79.3353116 54.0787339 78.5266073 64.1186944 64.7216617 64.5222552"></polygon>
                <polygon id="Shape" fill="#1281AC" points="69.214639 49.4638971 64.7216617 52.9851632 79.3353116 54.0787339 81.7234421 50.4751731"></polygon>
                <polygon id="Shape" fill="#1281AC" points="48.1234421 51.122453 59.0939664 49.7867458 64.7216617 52.9851632 52.5357072 54.9681503"></polygon>
                <polygon id="Shape" fill="#1281AC" points="67.3930762 55.9810089 67.3930762 71.7546983 61.6846686 71.1691395 59.2015826 70.9159248 58.4451039 70.8367953 55.9636004 70.581998 52.5357072 70.2306627 52.5357072 54.9681503 64.7200791 55.7974283"></polygon>
                <polygon id="Shape" fill="#1281AC" points="79.3353116 54.0787339 79.3353116 69.4615232 74.7600396 70.3398615 72.5349159 70.7671612 67.3930762 71.7546983 67.3930762 55.9810089"></polygon>
                <polygon id="Shape" fill="#000000" opacity="0.05" points="79.3353116 54.0787339 79.3353116 69.4615232 74.7600396 70.3398615 72.5349159 70.7671612 67.3930762 71.7546983 67.3930762 55.9810089"></polygon>
                <polygon id="Shape" fill="#1281AC" points="48.1234421 58.2884273 52.5357072 54.9681503 67.3930762 55.9810089 65.2059347 59.6652819"></polygon>
                <polygon id="Shape" fill="#FFFFFF" opacity="0.1" points="48.1234421 58.2884273 52.5357072 54.9681503 67.3930762 55.9810089 65.2059347 59.6652819"></polygon>
                <polygon id="Shape" fill="#1281AC" points="79.3353116 54.0787339 67.3930762 55.9810089 71.2799209 59.4627102 84.0720079 57.3167161"></polygon>
                <polygon id="Shape" fill="#FFFFFF" opacity="0.1" points="79.3353116 54.0787339 67.3930762 55.9810089 71.2799209 59.4627102 84.0720079 57.3167161"></polygon>
                <polygon id="Shape" fill="#FFFFFF" opacity="0.1" points="74.7600396 70.3398615 72.5349159 70.7671612 72.5349159 67.4801187 74.6191889 66.9546983"></polygon>
                <polygon id="Shape" fill="#FFFFFF" opacity="0.1" points="61.6846686 68.9946588 61.6846686 71.1691395 59.2015826 70.9159248 59.2015826 68.9946588"></polygon>
                <polygon id="Shape" fill="#FFFFFF" opacity="0.1" points="58.4451039 69.6799209 58.4451039 70.8367953 55.9636004 70.581998 55.9636004 69.6799209"></polygon>
                <path d="M65.8991098,67.8409496 C64.1978239,70.0170129 58.5796241,68.5135509 58.5796241,68.5135509 L54.4047478,64.1582591 L53.83818,63.5679525 L54.9459941,61.5105836 C54.9459941,61.5105836 55.2625124,61.6150346 55.7910979,61.7986152 C58.5891197,62.7766568 67.3313551,66.0098912 65.8991098,67.8409496 Z" id="Shape" fill="#000000" opacity="0.1"></path>
                <path d="M65.7408506,67.5244313 C64.0395648,69.7004946 58.421365,68.1970326 58.421365,68.1970326 L54.2464886,63.8417409 L53.6799209,63.2514342 L54.7877349,61.1940653 C54.7877349,61.1940653 55.1042532,61.2985163 55.6328388,61.4820969 C58.4308605,62.4601385 67.1730959,65.6933729 65.7408506,67.5244313 Z" id="Shape" fill="#EFB7B9"></path>
                <path d="M55.6265084,61.4820969 C55.39545,62.1467854 54.8083086,63.1311573 54.2401583,63.8417409 L53.6735905,63.2514342 L54.7814045,61.1940653 C54.7814045,61.1940653 55.0995054,61.2985163 55.6265084,61.4820969 Z" id="Shape" fill="#000000" opacity="0.1"></path>
                <path d="M41.8041543,36.869634 C41.8041543,36.869634 37.6498516,38.4522255 37.6102868,42.8834817 C37.6008313,45.7389918 37.7593643,48.5925855 38.0850643,51.4294758 C38.0850643,51.4294758 36.8981207,58.0367953 40.2611276,59.935905 C43.6241345,61.8350148 46.7497527,63.4176063 46.7497527,63.4176063 C46.7497527,63.4176063 52.1226508,64.2880317 52.7825915,64.5649852 C53.4425321,64.8419387 55.7357072,61.2811078 55.3796241,60.687636 C55.023541,60.0941642 50.1317507,58.6302671 49.5509397,57.6411474 C48.9701286,56.6520277 47.5394659,55.9857567 47.5394659,55.9857567 C47.5394659,55.9857567 46.0803165,54.9903066 46.0217606,54.1594461 C45.9632047,53.3285856 46.3936696,52.7351137 46.5155292,52.3790307 C46.6373887,52.0229476 47.0789318,48.5412463 47.0789318,48.5412463 C47.0789318,48.5412463 49.4401583,36.1891197 41.8041543,36.869634 Z" id="Shape" fill="#DCE6F2"></path>
                <path d="M43.7032641,51.5402572 C43.7032641,51.5402572 38.0850643,52.1732938 38.520277,54.1515331 C38.520277,54.1515331 40.6551929,52.1558853 43.7032641,51.5402572 Z" id="Shape" fill="#000000" opacity="0.1"></path>
                <path d="M43.7032641,52.3315529 C43.7032641,52.3315529 40.5143422,54.6658754 41.0999011,54.8241345 C41.6854599,54.9823937 43.7032641,52.3315529 43.7032641,52.3315529 Z" id="Shape" fill="#000000" opacity="0.1"></path>
                <path d="M45.1275964,53.2811078 C45.1275964,53.2811078 44.2176063,54.9175074 44.7319486,54.8320475 C45.2462908,54.7465875 45.1275964,53.2811078 45.1275964,53.2811078 Z" id="Shape" fill="#000000" opacity="0.1"></path>
                <path d="M103.623343,17.7867458 C103.623343,17.7867458 97.6094955,17.4243323 98.3121662,21.6435213 C98.3121662,21.6435213 98.1713155,22.3889219 98.8470821,22.7275964 C98.8470821,22.7275964 98.8581602,22.4110781 99.4642928,22.520277 C99.6801481,22.5566049 99.8995475,22.5672296 100.117903,22.5519288 C100.413817,22.5321929 100.695106,22.4160083 100.918694,22.2211672 L100.918694,22.2211672 C100.918694,22.2211672 102.610485,21.5232443 103.268843,18.7568744 C103.268843,18.7568744 103.756281,18.1523244 103.74362,17.9972305 L102.727596,18.4324431 C102.727596,18.4324431 103.074184,19.165183 102.800396,19.7744807 C102.800396,19.7744807 102.768744,18.4593472 102.572502,18.4894164 C102.532938,18.4894164 102.0455,18.7442136 102.0455,18.7442136 C102.0455,18.7442136 102.642136,20.0197824 102.191098,20.9487636 C102.191098,20.9487636 102.362018,19.3756677 101.858754,18.836004 L101.143422,19.2538081 C101.143422,19.2538081 101.841345,20.5721068 101.36815,21.648269 C101.36815,21.648269 101.49001,19.9976261 100.993076,19.355094 L100.344214,19.8599407 C100.344214,19.8599407 101.000989,21.1608309 100.600593,22.0534125 C100.600593,22.0534125 100.548368,20.1321464 100.203363,19.986548 C100.203363,19.986548 99.6367953,20.4866469 99.5513353,20.6923838 C99.5513353,20.6923838 99.9992087,21.6419387 99.7206726,22.1341246 C99.7206726,22.1341246 99.5497527,20.8538081 99.4041543,20.8474777 C99.4041543,20.8474777 98.8391691,21.6957468 98.7806133,22.2718101 C98.8079761,21.7347594 98.9754828,21.2142337 99.2664688,20.7620178 C98.9408466,20.8236244 98.6404276,20.9793361 98.4023739,21.2098912 C98.4023739,21.2098912 98.4894164,20.610089 99.4057369,20.5578635 C99.4057369,20.5578635 99.8805143,19.9137488 99.9976261,19.874184 C99.9976261,19.874184 99.0860534,19.7982196 98.533729,20.0435213 C98.533729,20.0435213 99.0195846,19.4785361 100.165381,19.727003 L100.798417,19.2047478 C100.798417,19.2047478 99.5988131,19.0464886 99.0892186,19.2221563 C99.0892186,19.2221563 99.6747774,18.7220574 100.97092,19.0860534 L101.66726,18.6698318 C101.66726,18.6698318 100.644906,18.448269 100.035608,18.5289812 C100.035608,18.5289812 100.67814,18.1823937 101.871414,18.5574679 L102.369931,18.3343225 C102.369931,18.3343225 101.619782,18.1871414 101.401385,18.1634026 C101.182987,18.1396637 101.170326,18.0795252 101.170326,18.0795252 C101.644896,18.0005398 102.132087,18.0553419 102.57725,18.2377844 C102.57725,18.2377844 103.6455,17.8532146 103.623343,17.7867458 Z" id="Shape" fill="#1281AC"></path>
                <path d="M121.895945,38.8890208 C121.895945,38.8890208 115.882097,38.5266073 116.584768,42.7457962 C116.584768,42.7457962 116.443917,43.4911968 117.119683,43.8298714 C117.119683,43.8298714 117.130762,43.5133531 117.738477,43.6225519 C117.954332,43.6588799 118.173732,43.6695046 118.392087,43.6542038 C118.684525,43.6330012 118.962191,43.5174923 119.183383,43.3250247 L119.183383,43.3250247 C119.183383,43.3250247 120.876756,42.6255193 121.535114,39.8591494 C121.535114,39.8591494 122.020969,39.256182 122.001978,39.101088 L120.985955,39.5347181 C120.985955,39.5347181 121.332542,40.267458 121.060336,40.8767557 C121.060336,40.8767557 121.027102,39.5616222 120.832443,39.5916914 C120.792878,39.5916914 120.303858,39.8464886 120.303858,39.8464886 C120.303858,39.8464886 120.902077,41.12364 120.451039,42.0510386 C120.451039,42.0510386 120.621958,40.4779426 120.117112,39.9382789 L119.409693,40.3513353 C119.409693,40.3513353 120.107616,41.669634 119.634421,42.7457962 C119.634421,42.7457962 119.756281,41.0951533 119.259347,40.4526212 L118.612067,40.9590504 C118.612067,40.9590504 119.26726,42.2583581 118.868447,43.1509397 C118.868447,43.1509397 118.816222,41.2296736 118.471217,41.0840752 C118.471217,41.0840752 117.904649,41.5841741 117.817606,41.789911 C117.817606,41.789911 118.267062,42.7394659 117.988526,43.2316518 C117.988526,43.2316518 117.817606,41.9513353 117.672008,41.9450049 C117.672008,41.9450049 117.107023,42.793274 117.048467,43.3693373 C117.076742,42.832221 117.244762,42.311794 117.535905,41.859545 C117.209872,41.9213019 116.908986,42.0769706 116.670227,42.3074184 C116.670227,42.3074184 116.758853,41.7076162 117.675173,41.6553907 C117.675173,41.6553907 118.142038,41.011276 118.267062,40.9717112 C118.267062,40.9717112 117.35549,40.8957468 116.803165,41.1410485 C116.803165,41.1410485 117.289021,40.5760633 118.433234,40.8324431 L119.066271,40.3101879 C119.066271,40.3101879 117.865084,40.1519288 117.357072,40.3275964 C117.357072,40.3275964 117.942631,39.8274975 119.238773,40.1914936 L119.935114,39.775272 C119.935114,39.775272 118.911177,39.5552918 118.301879,39.6344214 C118.301879,39.6344214 118.945994,39.2878338 120.139268,39.662908 L120.637784,39.4397626 C120.637784,39.4397626 119.887636,39.2925816 119.667656,39.2688427 C119.447676,39.2451039 119.436597,39.1849654 119.436597,39.1849654 C119.911687,39.1059326 120.399399,39.1607317 120.845104,39.3432245 C120.845104,39.3432245 121.914936,38.9554896 121.895945,38.8890208 Z" id="Shape" fill="#1281AC" opacity="0.1"></path>
                <path d="M85.36182,35.1430267 C85.36182,35.1430267 86.7465875,29.2731949 82.4672601,29.2526212 C82.4672601,29.2526212 81.7566766,28.9867458 81.3088032,29.5944609 C81.3088032,29.5944609 81.6142433,29.6593472 81.4069238,30.2385757 C81.3352215,30.4433973 81.2874268,30.6558183 81.2644906,30.8716123 C81.2338352,31.1657864 81.2999542,31.461933 81.452819,31.7151335 L81.452819,31.7151335 C81.452819,31.7151335 81.8532146,33.5034619 84.4597428,34.6239367 C84.4597428,34.6239367 84.9725025,35.2063304 85.1275964,35.2126607 L84.8743818,34.1380811 C84.8743818,34.1380811 84.0925816,34.3548961 83.5386746,33.979822 C83.5386746,33.979822 84.8411474,34.1713155 84.84273,33.979822 C84.84273,33.9402572 84.6844708,33.4164194 84.6844708,33.4164194 C84.6844708,33.4164194 83.3250247,33.7867458 82.4862512,33.1837784 C82.4862512,33.1837784 84.0071217,33.6205737 84.6259149,33.2170129 L84.3410485,32.4383778 C84.3410485,32.4383778 82.9167161,32.9020772 81.9418398,32.251632 C81.9418398,32.251632 83.5481701,32.6536103 84.2666667,32.2737883 L83.8789318,31.5489614 C83.8789318,31.5489614 82.4862512,31.9730959 81.6743818,31.4271019 C81.6743818,31.4271019 83.5734916,31.7024728 83.7792285,31.3891197 C83.7792285,31.3891197 83.3835806,30.7450049 83.1952522,30.624728 C83.1952522,30.624728 82.188724,30.9064293 81.7455984,30.547181 C81.7455984,30.547181 83.0354105,30.5962413 83.0654797,30.4601385 C83.0654797,30.4601385 82.3264095,29.7590504 81.7630069,29.6007913 C82.2880444,29.720335 82.7729184,29.9744985 83.1699308,30.3382789 C83.1641272,30.0065999 83.0618407,29.6837925 82.8755687,29.4092977 C82.8755687,29.4092977 83.451632,29.5992087 83.3503462,30.5171118 C83.3503462,30.5171118 83.9042532,31.0868447 83.9216617,31.2166172 C83.9216617,31.2166172 84.1511375,30.3319486 84.0039565,29.7448071 C84.0039565,29.7448071 84.4787339,30.3208704 84.0308605,31.4049456 L84.436004,32.1250247 C84.436004,32.1250247 84.8031652,30.9697329 84.7097923,30.4379822 C84.7097923,30.4379822 85.1038576,31.0995054 84.5230465,32.3149357 L84.8158259,33.072997 C84.8158259,33.072997 85.206726,32.1012859 85.2320475,31.4904055 C85.2320475,31.4904055 85.4646884,32.1835806 84.8902077,33.2961424 L85.0263106,33.824728 C85.0263106,33.824728 85.2985163,33.1109792 85.3586548,32.898912 C85.4187933,32.6868447 85.4805143,32.6852621 85.4805143,32.6852621 C85.4781025,33.1667305 85.3416497,33.6380135 85.0864491,34.0462908 C85.0864491,34.0462908 85.2937685,35.1509397 85.36182,35.1430267 Z" id="Shape" fill="#1281AC" opacity="0.1"></path>
                <path d="M72.1914936,37.1434224 C72.1914936,37.1434224 67.3614243,33.530366 65.634817,37.4441147 C65.634817,37.4441147 65.107814,37.9901088 65.4860534,38.6437191 C65.4860534,38.6437191 65.6664688,38.3889219 66.11909,38.8114738 C66.2794097,38.9606232 66.4568426,39.0902448 66.6476756,39.1976261 C66.9061546,39.3415524 67.2045671,39.3971227 67.4975272,39.3558853 L67.4975272,39.3558853 C67.4975272,39.3558853 69.2953511,39.7024728 71.3653808,37.7543027 C71.3653808,37.7543027 72.104451,37.5169139 72.1740851,37.3776459 L71.0836795,37.1861523 C71.0836795,37.1861523 70.9697329,37.9885262 70.407913,38.3477745 C70.407913,38.3477745 71.1026706,37.2304649 70.9222552,37.1497527 C70.8858556,37.1323442 70.3414441,37.0706231 70.3414441,37.0706231 C70.3414441,37.0706231 70.1388724,38.4664688 69.2526212,38.9934718 C69.2526212,38.9934718 70.2607319,37.7732938 70.1357072,37.0453017 L69.3080119,37.0009891 C69.3080119,37.0009891 69.1671612,38.4870425 68.1796241,39.1264095 C68.1796241,39.1264095 69.1877349,37.8144411 69.129179,37.0041543 L68.3093966,37.0706231 C68.3093966,37.0706231 68.1432245,38.5155292 67.3186944,39.0409496 C67.3186944,39.0409496 68.3299703,37.4077151 68.1226508,37.0975272 C68.1226508,37.0975272 67.3740851,37.2035608 67.1889219,37.327003 C67.1889219,37.327003 67.044906,38.3620178 66.5384768,38.624728 C66.5384768,38.624728 67.1002967,37.4615232 66.9863501,37.3808111 C66.9863501,37.3808111 66.0478734,37.7780415 65.6791296,38.2306627 C65.9981089,37.7972903 66.4247048,37.4547043 66.9167161,37.2367953 C66.6105876,37.1095603 66.2739988,37.0743615 65.9481701,37.1355094 C65.9481701,37.1355094 66.3501484,36.6828882 67.1446093,37.1434224 C67.1446093,37.1434224 67.8884273,36.8633037 68.0150346,36.8981207 C68.0150346,36.8981207 67.2949555,36.3331355 66.6983185,36.2350148 C66.6983185,36.2350148 67.416815,36.0292779 68.2318497,36.8680514 L69.0532146,36.7841741 C69.0532146,36.7841741 68.1400593,35.9928783 67.6162216,35.8599407 C67.6162216,35.8599407 68.3806133,35.7634026 69.2621167,36.7794263 L70.0724036,36.8158259 C70.0724036,36.8158259 69.3396637,36.0688427 68.7873393,35.7998022 C68.7873393,35.7998022 69.5137488,35.8631058 70.3050445,36.8332344 L70.8447082,36.920277 C70.8447082,36.920277 70.2987141,36.385361 70.1277943,36.246093 C69.9568744,36.1068249 69.9806133,36.048269 69.9806133,36.048269 C70.4208882,36.2432338 70.798379,36.5566224 71.0710188,36.9535114 C71.0710188,36.9535114 72.1709199,37.2083086 72.1914936,37.1434224 Z" id="Shape" fill="#1281AC" opacity="0.1"></path>
                <path d="M88.2722057,3.57507418 C88.2722057,3.57507418 83.4421365,-0.0395647873 81.7155292,3.87576657 C81.7155292,3.87576657 81.1885262,4.42176063 81.5667656,5.07537092 C81.5667656,5.07537092 81.747181,4.82057369 82.1998022,5.24312562 C82.3609617,5.39150468 82.5388881,5.52056768 82.7299703,5.62769535 C82.9884095,5.77173214 83.2868592,5.82730939 83.579822,5.7859545 L83.579822,5.7859545 C83.579822,5.7859545 85.3776459,6.13254204 87.4476756,4.18278932 C87.4476756,4.18278932 88.1867458,3.94698318 88.2547972,3.80613254 L87.1643917,3.61780415 C87.1643917,3.61780415 87.0520277,4.42017804 86.4886251,4.77942631 C86.4886251,4.77942631 87.1849654,3.66211672 87.00455,3.58140455 C86.9681503,3.56399604 86.4237389,3.50227498 86.4237389,3.50227498 C86.4237389,3.50227498 86.2148368,4.90128586 85.3285856,5.42512364 C85.3285856,5.42512364 86.3351137,4.2049456 86.2116716,3.47695351 L85.3839763,3.43264095 C85.3839763,3.43264095 85.241543,4.91869436 84.2555885,5.55647873 C84.2555885,5.55647873 85.2636993,4.24451039 85.2051434,3.43422354 L84.3869436,3.50069238 C84.3869436,3.50069238 84.2191889,4.94718101 83.3946588,5.47260138 C83.3946588,5.47260138 84.4075173,3.83936696 84.2001978,3.52917903 C84.2001978,3.52917903 83.451632,3.63521266 83.2664688,3.7586548 C83.2664688,3.7586548 83.122453,4.79366963 82.6160237,5.05637982 C82.6160237,5.05637982 83.1778437,3.89317507 83.0638971,3.81088032 C83.0638971,3.81088032 82.1254204,4.20969337 81.7566766,4.66231454 C82.0751738,4.22848018 82.5019048,3.88578572 82.9942631,3.66844708 C82.6878202,3.54026593 82.3504456,3.50504248 82.0241345,3.56716123 C82.0241345,3.56716123 82.4276954,3.11454006 83.2221563,3.57507418 C83.2221563,3.57507418 83.9659743,3.2933729 84.0925816,3.3297725 C84.0925816,3.3297725 83.3725025,2.76478734 82.7758655,2.66508408 C82.7758655,2.66508408 83.4927794,2.46092977 84.307814,3.29812067 L85.129179,3.21424332 C85.129179,3.21424332 84.2176063,2.42294758 83.692186,2.2884273 C83.692186,2.2884273 84.4565776,2.19347181 85.3396637,3.20949555 L86.1499505,3.24431256 C86.1499505,3.24431256 85.4172107,2.49732938 84.8633037,2.22987141 C84.8633037,2.22987141 85.5912957,2.29317507 86.3825915,3.26330366 L86.9206726,3.35034619 C86.9206726,3.35034619 86.3730959,2.82176063 86.2021761,2.68565776 C86.0312562,2.5495549 86.0549951,2.48941642 86.0549951,2.48941642 C86.4954027,2.68416707 86.8729469,2.9976 87.1454006,3.39465875 C87.1454006,3.39465875 88.2453017,3.63521266 88.2722057,3.57507418 Z" id="Shape" fill="#1281AC" opacity="0.1"></path>
                <path d="M106.728388,8.15351137 C106.728388,8.15351137 104.797626,2.43877349 101.156083,4.68447082 C101.156083,4.68447082 100.412265,4.84272997 100.353709,5.58813056 C100.353709,5.58813056 100.646489,5.48051434 100.776261,6.08189911 C100.824475,6.29582112 100.897228,6.50346062 100.993076,6.70069238 C101.123875,6.96612701 101.337071,7.18209859 101.600791,7.31632047 L101.600791,7.31632047 C101.600791,7.31632047 102.885856,8.62195846 105.696538,8.18991098 C105.696538,8.18991098 106.438773,8.41463897 106.574876,8.33709199 L105.783581,7.56003956 C105.783581,7.56003956 105.236004,8.15667656 104.56815,8.13293769 C104.56815,8.13293769 105.775668,7.60751731 105.675964,7.43818002 C105.655391,7.4049456 105.242334,7.04569733 105.242334,7.04569733 C105.242334,7.04569733 104.283284,8.07912957 103.254599,8.01107814 C103.254599,8.01107814 104.77547,7.57744807 105.085658,6.90326409 L104.430465,6.39841741 C104.430465,6.39841741 103.471414,7.54104847 102.295549,7.50623145 C102.295549,7.50623145 103.87814,6.99821958 104.278536,6.29554896 L103.56637,5.88565776 C103.56637,5.88565776 102.616815,6.98239367 101.632443,6.94757666 C101.632443,6.94757666 103.392285,6.1768546 103.397033,5.80336301 C103.397033,5.80336301 102.721266,5.46627102 102.498121,5.46310584 C102.498121,5.46310584 101.792285,6.23382789 101.232047,6.16419387 C101.232047,6.16419387 102.352522,5.52324431 102.305045,5.39188922 C102.305045,5.39188922 101.308012,5.18773492 100.746192,5.35232443 C101.25434,5.17540011 101.79993,5.13448084 102.328783,5.23363007 C102.148191,4.95493303 101.890252,4.73494243 101.586548,4.60059347 C101.586548,4.60059347 102.175272,4.45657765 102.569337,5.28585559 C102.569337,5.28585559 103.341642,5.47734916 103.423937,5.57705242 C103.423937,5.57705242 103.151731,4.70504451 102.716518,4.28407517 C102.716518,4.28407517 103.423937,4.52304649 103.617013,5.67992087 L104.34184,6.07556874 C104.34184,6.07556874 104.04273,4.90286845 103.681899,4.49297725 C103.681899,4.49297725 104.367161,4.84747774 104.515925,6.18476756 L105.164787,6.67378833 C105.164787,6.67378833 104.984372,5.64193867 104.680514,5.10702275 C104.680514,5.10702275 105.243917,5.57230465 105.345203,6.82096934 L105.739268,7.19762611 C105.739268,7.19762611 105.59367,6.44747774 105.533531,6.23541048 C105.473393,6.02334322 105.522453,6.0090999 105.522453,6.0090999 C105.774039,6.41964619 105.907138,6.89179247 105.907023,7.37329377 C105.907023,7.37329377 106.672997,8.19465875 106.728388,8.15351137 Z" id="Shape" fill="#1281AC" opacity="0.1"></path>
                <path d="M94.1277943,8.43521266 C94.1277943,8.43521266 88.1297725,7.76735905 88.6251236,12.0229476 C88.6251236,12.0229476 88.4462908,12.7604352 89.0999011,13.1307616 C89.0999011,13.1307616 89.1268051,12.8142433 89.7329377,12.9566766 C89.9471469,13.0027674 90.1658738,13.0245339 90.3849654,13.0215628 C90.6809079,13.0162182 90.9670415,12.9145435 91.2,12.7319486 L91.2,12.7319486 C91.2,12.7319486 92.9266073,12.1194857 93.7321464,9.38951533 C93.7321464,9.38951533 94.2480712,8.81186944 94.2369931,8.65519288 L93.2003956,9.03818002 C93.2003956,9.03818002 93.5169139,9.7867458 93.2003956,10.3818002 C93.2003956,10.3818002 93.2336301,9.06666667 93.0421365,9.08724036 C93.0025717,9.08724036 92.5024728,9.31513353 92.5024728,9.31513353 C92.5024728,9.31513353 93.0342235,10.6207715 92.5372898,11.5307616 C92.5372898,11.5307616 92.7873393,9.96716123 92.3109792,9.40375865 L91.5750742,9.78358061 C91.5750742,9.78358061 92.2081108,11.1366963 91.6779426,12.1875371 C91.6779426,12.1875371 91.8836795,10.5448071 91.4199802,9.8785361 L90.7473788,10.3533136 C90.7473788,10.3533136 91.3361029,11.684273 90.8913947,12.5562809 C90.8913947,12.5562809 90.9372898,10.6350148 90.6001978,10.4720079 C90.6001978,10.4720079 90.0083086,10.9467854 89.9117705,11.1430267 C89.9117705,11.1430267 90.3121662,12.1084075 90.0098912,12.5910979 C90.0098912,12.5910979 89.9038576,11.304451 89.7645895,11.2917903 C89.7645895,11.2917903 89.1568744,12.1099901 89.0682493,12.687636 C89.1231457,12.1520913 89.3173958,11.6402749 89.6316518,11.2031652 C89.3032494,11.2485475 88.9952357,11.3888037 88.7454006,11.606726 C88.7454006,11.606726 88.8625124,11.0132542 89.7804154,11.0069238 C89.7804154,11.0069238 90.2789318,10.3881306 90.413452,10.3548961 C90.413452,10.3548961 89.5066271,10.2330366 88.9416419,10.4498516 C88.9416419,10.4498516 89.4559842,9.90860534 90.5859545,10.223541 L91.2522255,9.73452028 C91.2522255,9.73452028 90.0478734,9.49080119 89.5382789,9.64906034 C89.5382789,9.64906034 90.1491592,9.17428289 91.424728,9.60949555 L92.1416419,9.228091 C92.1416419,9.228091 91.130366,8.95588526 90.5179031,9.0049456 C90.5179031,9.0049456 91.1778437,8.6884273 92.350544,9.12680514 L92.8601385,8.92898121 C92.8601385,8.92898121 92.1179031,8.743818 91.8995054,8.70900099 C91.6811078,8.67418398 91.6731949,8.6140455 91.6731949,8.6140455 C92.1516339,8.55915109 92.635923,8.63803981 93.0722057,8.84193867 C93.0722057,8.84193867 94.1388724,8.5016815 94.1277943,8.43521266 Z" id="Shape" fill="#1281AC" opacity="0.1"></path>
                <path d="M146.606528,54.9903066 C146.606528,54.9903066 140.611672,54.322453 141.107023,58.5732938 C141.107023,58.5732938 140.92819,59.3107814 141.5818,59.6811078 C141.5818,59.6811078 141.608704,59.3645895 142.214837,59.5054402 C142.428798,59.5530926 142.647708,59.5748774 142.866864,59.5703264 C143.162954,59.565794 143.449339,59.46403 143.681899,59.2807122 L143.681899,59.2807122 C143.681899,59.2807122 145.408506,58.6682493 146.206133,55.9398615 C146.206133,55.9398615 146.722057,55.360633 146.710979,55.2055391 L145.674382,55.5869436 C145.674382,55.5869436 145.9909,56.337092 145.674382,56.9321464 C145.674382,56.9321464 145.707616,55.6154303 145.516123,55.6375865 C145.476558,55.6375865 144.976459,55.8638971 144.976459,55.8638971 C144.976459,55.8638971 145.50821,57.1695351 145.011276,58.0795252 C145.011276,58.0795252 145.261325,56.5175074 144.784965,55.9525223 L144.04906,56.3339268 C144.04906,56.3339268 144.682097,57.6870425 144.153511,58.7378833 C144.153511,58.7378833 144.357666,57.0951533 143.893966,56.4272997 L143.221365,56.9020772 C143.221365,56.9020772 143.810089,58.2330366 143.365381,59.1034619 C143.365381,59.1034619 143.411276,57.1821958 143.074184,57.0207715 C143.074184,57.0207715 142.483877,57.495549 142.385757,57.6917903 C142.385757,57.6917903 142.787735,58.6571711 142.483877,59.1398615 C142.483877,59.1398615 142.377844,57.8532146 142.238576,57.8405539 C142.238576,57.8405539 141.630861,58.6587537 141.542235,59.2363996 C141.597132,58.7008549 141.791382,58.1890385 142.105638,57.7519288 C141.777001,57.7965005 141.468764,57.9368582 141.219387,58.1554896 C141.219387,58.1554896 141.336499,57.5604352 142.254402,57.5541048 C142.254402,57.5541048 142.7545,56.9353116 142.887438,56.9036597 C142.887438,56.9036597 141.980613,56.7802176 141.415628,56.9970326 C141.415628,56.9970326 141.92997,56.4573689 143.061523,56.7723046 L143.726212,56.2832839 C143.726212,56.2832839 142.536103,56.0585559 142.018595,56.2136499 C142.018595,56.2136499 142.629476,55.7388724 143.905045,56.1725025 L144.621958,55.7926805 C144.621958,55.7926805 143.610682,55.5204748 142.99822,55.5695351 C142.99822,55.5695351 143.65816,55.2530168 144.830861,55.6913947 L145.340455,55.4919881 C145.340455,55.4919881 144.59822,55.3068249 144.379822,55.2735905 C144.161424,55.2403561 144.153511,55.178635 144.153511,55.178635 C144.631815,55.1227445 145.116234,55.2011064 145.552522,55.4049456 C145.552522,55.4049456 146.622354,55.0583581 146.606528,54.9903066 Z" id="Shape" fill="#1281AC" opacity="0.1"></path>
                <path d="M155.771316,60.5895153 C155.771316,60.5895153 149.776459,59.9232443 150.27181,64.1725025 C150.27181,64.1725025 150.09456,64.9099901 150.746588,65.2803165 C150.746588,65.2803165 150.773492,64.9637982 151.379624,65.1062315 C151.593215,65.1527105 151.811524,65.1739571 152.030069,65.1695351 C152.324657,65.1635065 152.609418,65.0624804 152.841939,64.8815035 L152.841939,64.8815035 C152.841939,64.8815035 154.566963,64.2690406 155.36459,61.5390702 C155.36459,61.5390702 155.882097,60.9614243 155.869436,60.8047478 L154.832839,61.1861523 C154.832839,61.1861523 155.149357,61.9363007 154.832839,62.5313551 C154.832839,62.5313551 154.866073,61.2162216 154.67458,61.2367953 C154.635015,61.2367953 154.134916,61.4631058 154.134916,61.4631058 C154.134916,61.4631058 154.666667,62.7687438 154.169733,63.6787339 C154.169733,63.6787339 154.419782,62.1167161 153.943422,61.5533136 L153.207517,61.9331355 C153.207517,61.9331355 153.840554,63.2862512 153.311968,64.337092 C153.311968,64.337092 153.516123,62.694362 153.052423,62.028091 L152.379822,62.5028684 C152.379822,62.5028684 152.968546,63.8338279 152.52542,64.7058358 C152.52542,64.7058358 152.569733,62.7829871 152.232641,62.6215628 C152.232641,62.6215628 151.642334,63.0963403 151.544214,63.2925816 C151.544214,63.2925816 151.946192,64.2579624 151.642334,64.7406528 C151.642334,64.7406528 151.536301,63.4540059 151.397033,63.4413452 C151.397033,63.4413452 150.789318,64.259545 150.702275,64.8371909 C150.757063,64.3018813 150.950729,63.7901672 151.264095,63.3527201 C150.935693,63.3981024 150.627679,63.5383586 150.377844,63.7562809 C150.377844,63.7562809 150.496538,63.1612265 151.414441,63.1564787 C151.414441,63.1564787 151.912957,62.5376855 152.047478,62.504451 C152.047478,62.504451 151.140653,62.3825915 150.575668,62.5994065 C150.575668,62.5994065 151.09001,62.0581602 152.221563,62.3730959 L152.886251,61.8840752 C152.886251,61.8840752 151.696142,61.6593472 151.178635,61.8144411 C151.178635,61.8144411 151.789515,61.3396637 153.065084,61.7748764 L153.781998,61.3934718 C153.781998,61.3934718 152.770722,61.1212661 152.158259,61.1703264 C152.158259,61.1703264 152.8182,60.8538081 153.9909,61.292186 L154.500495,61.094362 C154.500495,61.094362 153.758259,60.9091988 153.541444,60.8743818 C153.324629,60.8395648 153.313551,60.7794263 153.313551,60.7794263 C153.79199,60.7245319 154.276279,60.8034206 154.712562,61.0073195 C154.712562,61.0073195 155.787141,60.6575668 155.771316,60.5895153 Z" id="Shape" fill="#1281AC" opacity="0.1"></path>
                <path d="M135.423937,13.4267062 C135.423937,13.4267062 130.593867,9.81364985 128.86726,13.7273986 C128.86726,13.7273986 128.340257,14.2733927 128.718497,14.927003 C128.718497,14.927003 128.898912,14.6722057 129.351533,15.0947577 C129.511853,15.2439071 129.689286,15.3735287 129.880119,15.48091 C130.138637,15.6247261 130.437013,15.6802894 130.72997,15.6391691 L130.72997,15.6391691 C130.72997,15.6391691 132.527794,15.9857567 134.599407,14.0375865 C134.599407,14.0375865 135.336894,13.8001978 135.406528,13.6609298 L134.319288,13.4646884 C134.319288,13.4646884 134.205341,14.2670623 133.643521,14.6263106 C133.643521,14.6263106 134.338279,13.509001 134.157864,13.4282888 C134.121464,13.4108803 133.578635,13.3491592 133.578635,13.3491592 C133.578635,13.3491592 133.374481,14.7450049 132.488229,15.2720079 C132.488229,15.2720079 133.49634,14.0518299 133.371316,13.3238378 L132.54362,13.2795252 C132.54362,13.2795252 132.40277,14.7655786 131.415232,15.4049456 C131.415232,15.4049456 132.424926,14.0929773 132.364787,13.2826904 L131.545005,13.3491592 C131.545005,13.3491592 131.386746,14.7940653 130.554303,15.3194857 C130.554303,15.3194857 131.567161,13.6862512 131.358259,13.3760633 C131.358259,13.3760633 130.609693,13.4820969 130.42453,13.6055391 C130.42453,13.6055391 130.282097,14.6405539 129.775668,14.9032641 C129.775668,14.9032641 130.335905,13.7400593 130.221958,13.6593472 C130.221958,13.6593472 129.283482,14.0565776 128.914738,14.5091988 C129.233717,14.0758264 129.660313,13.7332404 130.152324,13.5153314 C129.846196,13.3880965 129.509607,13.3528976 129.183778,13.4140455 C129.183778,13.4140455 129.587339,12.9614243 130.3818,13.4219585 C130.3818,13.4219585 131.124036,13.1418398 131.250643,13.1766568 C131.250643,13.1766568 130.530564,12.6116716 129.933927,12.5135509 C129.933927,12.5135509 130.652423,12.307814 131.467458,13.1465875 L132.288823,13.0627102 C132.288823,13.0627102 131.37725,12.2714144 130.85183,12.1384768 C130.85183,12.1384768 131.616222,12.0419387 132.497725,13.0579624 L133.309594,13.094362 C133.309594,13.094362 132.575272,12.3473788 132.022948,12.0783383 C132.022948,12.0783383 132.75094,12.1416419 133.540653,13.1117705 L134.080317,13.1988131 C134.080317,13.1988131 133.534322,12.6638971 133.363403,12.5246291 C133.192483,12.385361 133.217804,12.3394659 133.217804,12.3394659 C133.657455,12.5347486 134.034356,12.8481017 134.306627,13.2447082 C134.306627,13.2447082 135.403363,13.4915925 135.423937,13.4267062 Z" id="Shape" fill="#1281AC" opacity="0.1"></path>
                <path d="M139.155687,39.5109792 C139.155687,39.5109792 137.490801,33.7139466 133.74639,35.7950544 C133.74639,35.7950544 132.996241,35.9105836 132.902868,36.6607319 C132.902868,36.6607319 133.200396,36.5673591 133.303264,37.1734916 C133.341409,37.3912483 133.405155,37.6037341 133.493175,37.8065282 C133.610562,38.0792371 133.813998,38.3060189 134.072404,38.4522255 L134.072404,38.4522255 C134.072404,38.4522255 135.297329,39.8132542 138.123838,39.5093966 C138.123838,39.5093966 138.854995,39.7657765 138.994263,39.6961424 L138.245697,38.8826904 C138.245697,38.8826904 137.671217,39.4555885 137.006528,39.4017804 C137.006528,39.4017804 138.234619,38.927003 138.139664,38.7576657 C138.120673,38.7228487 137.725025,38.3446093 137.725025,38.3446093 C137.725025,38.3446093 136.721662,39.3353116 135.696142,39.2197824 C135.696142,39.2197824 137.236004,38.8557864 137.574679,38.2005935 L136.941642,37.6656775 C136.941642,37.6656775 135.931949,38.763996 134.759248,38.6785361 C134.759248,38.6785361 136.3545,38.2401583 136.794461,37.5580613 L136.101286,37.1165183 C136.101286,37.1165183 135.09634,38.1689416 134.121464,38.0898121 C134.121464,38.0898121 135.91454,37.3982196 135.936696,37.0263106 C135.936696,37.0263106 135.275173,36.6591494 135.052028,36.6464886 C135.052028,36.6464886 134.312957,37.3839763 133.751137,37.2890208 C133.751137,37.2890208 134.900099,36.6987141 134.858952,36.5657765 C134.858952,36.5657765 133.871414,36.3173096 133.303264,36.4549951 C133.817839,36.3024061 134.363303,36.2865877 134.885856,36.4090999 C134.718477,36.1227393 134.470899,35.8916666 134.173689,35.7444115 C134.173689,35.7444115 134.768744,35.6257171 135.123244,36.4724036 C135.123244,36.4724036 135.884471,36.6971316 135.9636,36.8015826 C135.9636,36.8015826 135.730959,35.9169139 135.314738,35.4785361 C135.314738,35.4785361 136.011078,35.7475767 136.151929,36.912364 L136.857765,37.3412463 C136.857765,37.3412463 136.61088,36.1543027 136.269041,35.7364985 C136.269041,35.7364985 136.936894,36.1210682 137.027102,37.4631058 L137.660138,37.9806133 C137.660138,37.9806133 137.525618,36.9424332 137.247082,36.3980218 C137.247082,36.3980218 137.789911,36.8886251 137.834224,38.1388724 L138.21088,38.5345203 C138.21088,38.5345203 138.100099,37.7780415 138.052621,37.5628091 C138.005143,37.3475767 138.052621,37.3175074 138.052621,37.3175074 C138.286811,37.7384642 138.399151,38.2163193 138.377052,38.6975272 C138.377052,38.6975272 139.098714,39.5489614 139.155687,39.5109792 Z" id="Shape" fill="#1281AC" opacity="0.1"></path>
                <path d="M102.056578,52.5736894 C102.056578,52.5736894 98.8233432,47.48091 95.8211672,50.5289812 C95.8211672,50.5289812 95.1343225,50.8454995 95.2545994,51.5972305 C95.2545994,51.5972305 95.515727,51.4231454 95.7847676,51.9770524 C95.8814408,52.173351 96.0015374,52.3572158 96.1424332,52.5246291 C96.3311323,52.7531281 96.5897015,52.9132741 96.8783383,52.9804154 L96.8783383,52.9804154 C96.8783383,52.9804154 98.4371909,53.9426311 101.064293,52.8538081 C101.064293,52.8538081 101.83818,52.8949555 101.952127,52.7889219 L101.002572,52.2191889 C101.002572,52.2191889 100.611672,52.9313551 99.9580613,53.0658754 C99.9580613,53.0658754 101.005737,52.2745796 100.864886,52.1289812 C100.837982,52.1004946 100.350544,51.8504451 100.350544,51.8504451 C100.350544,51.8504451 99.6652819,53.0817013 98.6492582,53.2605341 C98.6492582,53.2605341 100.02453,52.4771513 100.166963,51.7523244 L99.4089021,51.4183976 C99.4089021,51.4183976 98.7489614,52.7556874 97.6,53.0009891 C97.6,53.0009891 99.0085064,52.1321464 99.2379822,51.3535114 L98.4466864,51.1256182 C98.4466864,51.1256182 97.7788328,52.4185955 96.821365,52.6164194 C96.821365,52.6164194 98.3469832,51.4484669 98.2631058,51.0844708 C98.2631058,51.0844708 97.5256182,50.9182987 97.3135509,50.9689416 C97.3135509,50.9689416 96.8118694,51.8852621 96.2453017,51.951731 C96.2453017,51.951731 97.1821958,51.0623145 97.1046489,50.9452028 C97.1046489,50.9452028 96.0870425,50.9847676 95.5806133,51.277547 C96.0323574,50.9848852 96.552916,50.8157309 97.0904055,50.7869436 C96.8497617,50.5591827 96.547743,50.406798 96.2215628,50.3485658 C96.2215628,50.3485658 96.7580613,50.0684471 97.3293769,50.7806133 C97.3293769,50.7806133 98.1206726,50.7806133 98.2298714,50.8597428 C98.2298714,50.8597428 97.755094,50.0684471 97.2344214,49.7725025 C97.2344214,49.7725025 97.9782394,49.8358061 98.4403561,50.9135509 L99.2395648,51.1256182 C99.2395648,51.1256182 98.6682493,50.0573689 98.223541,49.7519288 C98.223541,49.7519288 98.9721068,49.9323442 99.4358061,51.1968348 L100.182789,51.5133531 C100.182789,51.5133531 99.76182,50.5558853 99.3392681,50.1080119 C99.3392681,50.1080119 99.9976261,50.4245302 100.391691,51.6130564 L100.866469,51.8868447 C100.866469,51.8868447 100.549951,51.192087 100.437587,51.0005935 C100.325223,50.8090999 100.369535,50.7647873 100.369535,50.7647873 C100.711999,51.1030625 100.953642,51.529911 101.067458,51.9976261 C101.067458,51.9976261 102.013848,52.6274975 102.056578,52.5736894 Z" id="Shape" fill="#1281AC" opacity="0.1"></path>
                <path d="M123.306034,26.5527201 C123.306034,26.5527201 120.231058,21.3634026 117.133927,24.3165183 C117.133927,24.3165183 116.437587,24.6172107 116.535707,25.3673591 C116.535707,25.3673591 116.8,25.1996044 117.053215,25.7614243 C117.143763,25.9611363 117.258002,26.1492329 117.393472,26.3216617 C117.575207,26.5550425 117.828877,26.7219304 118.115134,26.7964392 L118.115134,26.7964392 C118.115134,26.7964392 119.642334,27.8061325 122.302671,26.7964392 C122.302671,26.7964392 123.074975,26.8613254 123.192087,26.758457 L122.263106,26.1602374 C122.263106,26.1602374 121.851632,26.8581602 121.193274,26.9736894 C121.193274,26.9736894 122.264688,26.2092977 122.130168,26.0652819 C122.101682,26.0352127 121.623739,25.7693373 121.623739,25.7693373 C121.623739,25.7693373 120.900495,26.9800198 119.882888,27.1272008 C119.882888,27.1272008 121.281899,26.386548 121.444906,25.6680514 L120.697923,25.3167161 C120.697923,25.3167161 119.996835,26.6350148 118.83996,26.8454995 C118.83996,26.8454995 120.275371,26.0209693 120.528586,25.2502473 L119.746785,24.9970326 C119.746785,24.9970326 119.037784,26.2631058 118.075569,26.4371909 C118.075569,26.4371909 119.636004,25.3167161 119.563205,24.9511375 C119.563205,24.9511375 118.832047,24.7612265 118.61365,24.8055391 C118.61365,24.8055391 118.083482,25.7060336 117.515331,25.755094 C117.515331,25.755094 118.47913,24.8973294 118.40633,24.7770524 C118.40633,24.7770524 117.387141,24.7849654 116.872799,25.0619189 C117.33355,24.7840032 117.858901,24.6312533 118.396835,24.6187933 C118.162912,24.3835364 117.865309,24.2218074 117.540653,24.1535114 C117.540653,24.1535114 118.086647,23.8892186 118.648467,24.6187933 C118.648467,24.6187933 119.439763,24.6456973 119.545796,24.7264095 C119.545796,24.7264095 119.097923,23.9351137 118.585163,23.6090999 C118.585163,23.6090999 119.325816,23.6945598 119.754698,24.786548 L120.545994,25.0239367 C120.545994,25.0239367 120.009496,23.9382789 119.5727,23.6185955 C119.5727,23.6185955 120.316518,23.8227498 120.740653,25.0999011 L121.476558,25.4433234 C121.476558,25.4433234 121.085658,24.4731949 120.685262,24.0189911 C120.685262,24.0189911 121.332542,24.3560831 121.69179,25.5556874 L122.15549,25.8437191 C122.15549,25.8437191 121.857962,25.1394659 121.753511,24.9448071 C121.64906,24.7501484 121.693373,24.7074184 121.693373,24.7074184 C122.025112,25.0560961 122.253571,25.4900031 122.353314,25.9608309 C122.353314,25.9608309 123.260138,26.6049456 123.306034,26.5527201 Z" id="Shape" fill="#1281AC"></path>
                <path d="M103.851236,37.4646884 C103.851236,37.4646884 104.009496,31.4350148 99.8203759,32.2848665 C99.8203759,32.2848665 99.0702275,32.1693373 98.7537092,32.856182 C98.7537092,32.856182 99.0702275,32.856182 98.9816024,33.4654797 C98.9526104,33.6827387 98.9494231,33.9026647 98.9721068,34.1206726 C99.0007161,34.4163758 99.1258473,34.6944451 99.3281899,34.9119683 L99.3281899,34.9119683 C99.3281899,34.9119683 100.083086,36.5800198 102.87003,37.1465875 C102.87003,37.1465875 103.488823,37.613452 103.643917,37.5881306 L103.169139,36.5879327 C103.169139,36.5879327 102.44906,36.9582591 101.830267,36.7066271 C101.830267,36.7066271 103.143818,36.6290801 103.107418,36.436004 C103.107418,36.3964392 102.835213,35.9153314 102.835213,35.9153314 C102.835213,35.9153314 101.578635,36.5562809 100.636993,36.1353116 C100.636993,36.1353116 102.219585,36.2540059 102.737092,35.7333333 L102.295549,35.0322453 C102.295549,35.0322453 101.000989,35.7728981 99.909001,35.3361029 C99.909001,35.3361029 101.562809,35.4025717 102.189515,34.8850643 L101.662512,34.2520277 C101.662512,34.2520277 100.385361,34.9515331 99.4801187,34.5812067 C99.4801187,34.5812067 101.39822,34.4656775 101.537488,34.1159248 C101.537488,34.1159248 101.018398,33.5667656 100.809496,33.4828882 C100.809496,33.4828882 99.8820969,33.9576657 99.3756677,33.7012859 C99.3756677,33.7012859 100.641741,33.4892186 100.649654,33.348368 C100.649654,33.348368 99.7839763,32.8118694 99.2,32.7723046 C99.7384921,32.781932 100.265056,32.9325347 100.727201,33.2090999 C100.655098,32.8856185 100.490082,32.5902404 100.252423,32.3592483 C100.252423,32.3592483 100.855391,32.4272997 100.937685,33.340455 C100.937685,33.340455 101.597626,33.7867458 101.640356,33.9101879 C101.640356,33.9101879 101.686251,32.9970326 101.421958,32.4526212 C101.421958,32.4526212 102.004352,32.9194857 101.785955,34.0716123 L102.328783,34.6951533 C102.328783,34.6951533 102.452226,33.4892186 102.254402,32.9875371 C102.254402,32.9875371 102.773492,33.5556874 102.453808,34.862908 L102.892186,35.5450049 C102.892186,35.5450049 103.078932,34.5147379 102.979228,33.9086053 C102.979228,33.9086053 103.34639,34.5416419 103.01088,35.7459941 L103.251434,36.2365974 C103.251434,36.2365974 103.373294,35.4817013 103.38912,35.2617211 C103.404946,35.0417409 103.465084,35.0274975 103.465084,35.0274975 C103.560352,35.4995994 103.522545,35.9888884 103.355885,36.4407517 C103.355885,36.4407517 103.781602,37.4852621 103.851236,37.4646884 Z" id="Shape" fill="#1281AC"></path>
                <ellipse id="Oval" fill="#1281AC" opacity="0.1" cx="110.776657" cy="113.361029" rx="4.26191889" ry="1"></ellipse>
                <ellipse id="Oval" fill="#1281AC" opacity="0.1" cx="95.2403561" cy="124.293571" rx="4.26191889" ry="1"></ellipse>
                <ellipse id="Oval" fill="#1281AC" opacity="0.1" cx="14.8985163" cy="118.692779" rx="4.26191889" ry="1"></ellipse>
                <ellipse id="Oval" fill="#1281AC" opacity="0.1" cx="127.56637" cy="123.573492" rx="4.26191889" ry="1"></ellipse>
                <ellipse id="Oval" fill="#1281AC" cx="132.003956" cy="114.437191" rx="6.3636004" ry="1.07616222"></ellipse>
                <path d="M134.642136,112.675767 C134.93264,112.439714 135.144118,112.120564 135.248269,111.761029 C135.327399,111.397033 135.172305,110.96182 134.825717,110.828882 C134.4364,110.680119 134.020178,110.949159 133.70366,111.221365 C133.387141,111.493571 133.027893,111.805341 132.614837,111.748368 C133.046138,111.356556 133.240702,110.767461 133.127596,110.195846 C133.109665,110.079386 133.060434,109.969985 132.985163,109.879327 C132.768348,109.648269 132.377448,109.747972 132.117903,109.92997 C131.294955,110.509199 131.06548,111.626508 131.060732,112.633037 C130.978437,112.270623 131.048071,111.892384 131.046489,111.525223 C131.044906,111.158061 130.942038,110.733927 130.627102,110.540851 C130.433791,110.433063 130.215358,110.378455 129.994065,110.382591 C129.623739,110.369931 129.210682,110.40633 128.95905,110.676954 C128.642532,111.012463 128.726409,111.577448 128.998615,111.943027 C129.270821,112.308605 129.687043,112.544411 130.07003,112.800791 C130.376552,112.983838 130.638262,113.233112 130.836004,113.530366 C130.858538,113.571771 130.877085,113.615224 130.891395,113.660138 L133.211474,113.660138 C133.73087,113.398539 134.212188,113.067367 134.642136,112.675767 Z" id="Shape" fill="#1281AC"></path>
                <path d="M12.0371909,115.345598 C12.0371909,115.345598 14.4664688,115.271217 15.2023739,114.748961 C15.9382789,114.226706 18.9420376,113.604748 19.1240356,114.441939 C19.3060336,115.27913 22.7766568,118.602572 20.0324431,118.624728 C17.2882295,118.646884 13.656182,118.197428 12.9250247,117.751137 C12.1938675,117.304847 12.0371909,115.345598 12.0371909,115.345598 Z" id="Shape" fill="#A8A8A8"></path>
                <path d="M20.0783383,118.333531 C17.3341246,118.355687 13.7020772,117.906231 12.9709199,117.459941 C12.4138477,117.121266 12.1922849,115.904253 12.1179031,115.342433 L12.0371909,115.342433 C12.0371909,115.342433 12.19545,117.303264 12.9218595,117.747972 C13.648269,118.192681 17.2850643,118.643719 20.0292779,118.621563 C20.8205737,118.621563 21.094362,118.333531 21.0801187,117.915727 C20.9693373,118.170524 20.6670623,118.328783 20.0783383,118.333531 Z" id="Shape" fill="#000000" opacity="0.2"></path>
            </g>
        </g>
    </g>
</svg>