<?xml version="1.0" encoding="UTF-8"?>
<svg width="160px" height="160px" viewBox="0 0 160 160" version="1.1" xmlns="http://www.w3.org/2000/svg" xmlns:xlink="http://www.w3.org/1999/xlink">
    <!-- Generator: sketchtool 54.1 (76490) - https://sketchapp.com -->
    <title>d26267c0-2fd6-4f90-95e7-1b7384c97431@1.00x</title>
    <desc>Created with sketchtool.</desc>
    <g id="Illustrations" stroke="none" stroke-width="1" fill="none" fill-rule="evenodd">
        <g id="5-Illustrations/1-Illustration/Calculator" fill-rule="nonzero">
            <g id="undraw_Calculator_0evy" transform="translate(21.000000, 36.000000)">
                <path d="M67.9182826,12.9840151 C60.4240002,12.7217752 53.2863678,10.287024 46.4694888,7.62266721 C39.6526098,4.95831042 32.9028922,2.00723808 25.5880927,0.59463947 C20.883323,-0.313293135 15.5034657,-0.44149928 11.7123222,2.09698238 C8.0647651,4.54455423 6.88596728,8.75787434 6.25140813,12.6716583 C5.77548877,15.6157376 5.49526375,18.7148297 6.80143659,21.4712618 C7.70811507,23.3850299 9.31882998,24.9934343 10.4327823,26.8256166 C14.3072986,33.2032896 11.5687359,41.0728158 7.37115027,47.2954759 C5.40262738,50.2174104 3.11682491,53.0064768 1.59643047,56.1137276 C0.0760360212,59.2209783 -0.626842447,62.7862746 0.702489483,65.958794 C2.02139982,69.1056721 5.16293077,71.4646651 8.56615946,73.1255174 C15.4768328,76.5054976 23.6195698,77.4647127 31.5642966,78.011337 C49.144364,79.2223024 66.8193837,78.6978227 84.4457693,78.173343 C90.9696857,77.9787028 97.5213931,77.7817315 103.939936,76.7665719 C107.502962,76.2036304 111.182942,75.3085184 113.769813,73.1534897 C117.053772,70.4110437 117.867814,65.7676503 115.6677,62.328229 C111.976141,56.5601181 101.772245,55.1277058 99.1888478,48.93768 C97.7680374,45.5297276 99.2270603,41.7348257 101.290535,38.5739615 C105.718554,31.795353 113.139885,25.8477534 113.531274,18.0994402 C113.799919,12.7777197 110.232261,7.44784065 104.715765,4.92917266 C98.9329398,2.29045711 90.9152619,2.62262757 86.6516729,6.99096057 C82.2537611,11.4840032 74.5325196,13.2171171 67.9182826,12.9840151 Z" id="Shape" fill="#10739A" opacity="0.3"></path>
                <ellipse id="Oval" fill="#10739A" opacity="0.4" cx="67.55" cy="83.3203125" rx="43.05" ry="3.1640625"></ellipse>
                <path d="M36.4,23.4884032 C36.4,23.4884032 39.1176471,19.3871462 40.6,19.7050731 C40.6,19.7050731 38.9529412,23.3612325 36.4,23.90625 L36.4,23.4884032 Z" id="Shape" fill="#6C63FF"></path>
                <path d="M37.9094992,17.9450285 C37.9094992,17.9450285 40.5656686,14.7576006 42,14.765625 C42,14.765625 39.9032525,19.0232307 37.8,18.984107 L37.9094992,17.9450285 Z" id="Shape" fill="#6C63FF"></path>
                <path d="M38.894904,14.9617885 L41.9990329,8.4375 C41.9990329,8.4375 42.1551577,14.3352578 38.5,16.171875 L38.894904,14.9617885 Z" id="Shape" fill="#6C63FF"></path>
                <path d="M37.8,18.79999 C37.8,18.79999 37.7905434,14.3922222 36.7429612,13.359375 C36.7429612,13.359375 35.6995819,18.1876677 37.2525674,19.6875 L37.8,18.79999 Z" id="Shape" fill="#6C63FF"></path>
                <ellipse id="Oval" fill="#10739A" opacity="0.3" cx="110.25" cy="86.484375" rx="3.15" ry="1"></ellipse>
                <ellipse id="Oval" fill="#10739A" opacity="0.3" cx="80.85" cy="89.296875" rx="3.15" ry="1"></ellipse>
                <ellipse id="Oval" fill="#10739A" opacity="0.3" cx="115.85" cy="81.5625" rx="3.15" ry="1"></ellipse>
                <path d="M41.86,7.734375 L78.54,7.734375 C82.3286734,7.734375 85.4,10.8057016 85.4,14.594375 L85.4,76.10875 C85.4,79.8974234 82.3286734,82.96875 78.54,82.96875 L41.86,82.96875 C38.0713266,82.96875 35,79.8974234 35,76.10875 L35,14.594375 C35,10.8057016 38.0713266,7.734375 41.86,7.734375 Z" id="Rectangle-path" fill="#10739A"></path>
                <path d="M46.93125,14.0625 L74.16875,14.0625 C78.0520021,14.0625 81.2,17.2104979 81.2,21.09375 L81.2,21.09375 C81.2,24.9770021 78.0520021,28.125 74.16875,28.125 L46.93125,28.125 C43.0479979,28.125 39.9,24.9770021 39.9,21.09375 L39.9,21.09375 C39.9,17.2104979 43.0479979,14.0625 46.93125,14.0625 Z" id="Rectangle-path" fill="#000000" opacity="0.1"></path>
                <path d="M46.93125,14.0625 L73.46875,14.0625 C77.3520021,14.0625 80.5,17.2104979 80.5,21.09375 L80.5,21.09375 C80.5,24.9770021 77.3520021,28.125 73.46875,28.125 L46.93125,28.125 C43.0479979,28.125 39.9,24.9770021 39.9,21.09375 L39.9,21.09375 C39.9,17.2104979 43.0479979,14.0625 46.93125,14.0625 Z" id="Rectangle-path" fill="#EEEEEE"></path>
                <path d="M44.8,35.15625 L44.8,35.15625 C47.1195959,35.15625 49,37.0366541 49,39.35625 L49,40.096875 C49,42.4164709 47.1195959,44.296875 44.8,44.296875 L44.8,44.296875 C42.4804041,44.296875 40.6,42.4164709 40.6,40.096875 L40.6,39.35625 C40.6,37.0366541 42.4804041,35.15625 44.8,35.15625 Z" id="Rectangle-path" fill="#000000" opacity="0.1"></path>
                <path d="M55.3,35.15625 L55.3,35.15625 C57.6195959,35.15625 59.5,37.0366541 59.5,39.35625 L59.5,40.096875 C59.5,42.4164709 57.6195959,44.296875 55.3,44.296875 L55.3,44.296875 C52.9804041,44.296875 51.1,42.4164709 51.1,40.096875 L51.1,39.35625 C51.1,37.0366541 52.9804041,35.15625 55.3,35.15625 Z" id="Rectangle-path" fill="#000000" opacity="0.1"></path>
                <path d="M65.1,35.15625 L65.1,35.15625 C67.4195959,35.15625 69.3,37.0366541 69.3,39.35625 L69.3,40.096875 C69.3,42.4164709 67.4195959,44.296875 65.1,44.296875 L65.1,44.296875 C62.7804041,44.296875 60.9,42.4164709 60.9,40.096875 L60.9,39.35625 C60.9,37.0366541 62.7804041,35.15625 65.1,35.15625 Z" id="Rectangle-path" fill="#000000" opacity="0.1"></path>
                <path d="M75.6,35.15625 L75.6,35.15625 C77.9195959,35.15625 79.8,37.0366541 79.8,39.35625 L79.8,40.096875 C79.8,42.4164709 77.9195959,44.296875 75.6,44.296875 L75.6,44.296875 C73.2804041,44.296875 71.4,42.4164709 71.4,40.096875 L71.4,39.35625 C71.4,37.0366541 73.2804041,35.15625 75.6,35.15625 Z" id="Rectangle-path" fill="#000000" opacity="0.1"></path>
                <path d="M75.6,35.15625 L75.6,35.15625 C77.9195959,35.15625 79.8,37.0366541 79.8,39.35625 L79.8,40.096875 C79.8,42.4164709 77.9195959,44.296875 75.6,44.296875 L75.6,44.296875 C73.2804041,44.296875 71.4,42.4164709 71.4,40.096875 L71.4,39.35625 C71.4,37.0366541 73.2804041,35.15625 75.6,35.15625 Z" id="Rectangle-path" fill="#4DA0C0"></path>
                <path d="M44.8,45 L44.8,45 C47.1195959,45 49,46.8804041 49,49.2 L49,49.940625 C49,52.2602209 47.1195959,54.140625 44.8,54.140625 L44.8,54.140625 C42.4804041,54.140625 40.6,52.2602209 40.6,49.940625 L40.6,49.2 C40.6,46.8804041 42.4804041,45 44.8,45 Z" id="Rectangle-path" fill="#000000" opacity="0.1"></path>
                <path d="M55.3,45 L55.3,45 C57.6195959,45 59.5,46.8804041 59.5,49.2 L59.5,49.940625 C59.5,52.2602209 57.6195959,54.140625 55.3,54.140625 L55.3,54.140625 C52.9804041,54.140625 51.1,52.2602209 51.1,49.940625 L51.1,49.2 C51.1,46.8804041 52.9804041,45 55.3,45 Z" id="Rectangle-path" fill="#000000" opacity="0.1"></path>
                <path d="M65.1,45 L65.1,45 C67.4195959,45 69.3,46.8804041 69.3,49.2 L69.3,49.940625 C69.3,52.2602209 67.4195959,54.140625 65.1,54.140625 L65.1,54.140625 C62.7804041,54.140625 60.9,52.2602209 60.9,49.940625 L60.9,49.2 C60.9,46.8804041 62.7804041,45 65.1,45 Z" id="Rectangle-path" fill="#000000" opacity="0.1"></path>
                <path d="M44.8,56.25 L44.8,56.25 C47.1195959,56.25 49,58.1304041 49,60.45 L49,61.190625 C49,63.5102209 47.1195959,65.390625 44.8,65.390625 L44.8,65.390625 C42.4804041,65.390625 40.6,63.5102209 40.6,61.190625 L40.6,60.45 C40.6,58.1304041 42.4804041,56.25 44.8,56.25 Z" id="Rectangle-path" fill="#000000" opacity="0.1"></path>
                <path d="M55.3,56.25 L55.3,56.25 C57.6195959,56.25 59.5,58.1304041 59.5,60.45 L59.5,61.190625 C59.5,63.5102209 57.6195959,65.390625 55.3,65.390625 L55.3,65.390625 C52.9804041,65.390625 51.1,63.5102209 51.1,61.190625 L51.1,60.45 C51.1,58.1304041 52.9804041,56.25 55.3,56.25 Z" id="Rectangle-path" fill="#000000" opacity="0.1"></path>
                <path d="M65.1,56.25 L65.1,56.25 C67.4195959,56.25 69.3,58.1304041 69.3,60.45 L69.3,61.190625 C69.3,63.5102209 67.4195959,65.390625 65.1,65.390625 L65.1,65.390625 C62.7804041,65.390625 60.9,63.5102209 60.9,61.190625 L60.9,60.45 C60.9,58.1304041 62.7804041,56.25 65.1,56.25 Z" id="Rectangle-path" fill="#000000" opacity="0.1"></path>
                <path d="M65.1,68.203125 L65.1,68.203125 C67.4195959,68.203125 69.3,70.0835291 69.3,72.403125 L69.3,73.14375 C69.3,75.4633459 67.4195959,77.34375 65.1,77.34375 L65.1,77.34375 C62.7804041,77.34375 60.9,75.4633459 60.9,73.14375 L60.9,72.403125 C60.9,70.0835291 62.7804041,68.203125 65.1,68.203125 Z" id="Rectangle-path" fill="#000000" opacity="0.1"></path>
                <path d="M75.6,45 L75.6,45 C77.9195959,45 79.8,46.8804041 79.8,49.2 L79.8,49.940625 C79.8,52.2602209 77.9195959,54.140625 75.6,54.140625 L75.6,54.140625 C73.2804041,54.140625 71.4,52.2602209 71.4,49.940625 L71.4,49.2 C71.4,46.8804041 73.2804041,45 75.6,45 Z" id="Rectangle-path" fill="#000000" opacity="0.1"></path>
                <path d="M75.6,45 L75.6,45 C77.9195959,45 79.8,46.8804041 79.8,49.2 L79.8,49.940625 C79.8,52.2602209 77.9195959,54.140625 75.6,54.140625 L75.6,54.140625 C73.2804041,54.140625 71.4,52.2602209 71.4,49.940625 L71.4,49.2 C71.4,46.8804041 73.2804041,45 75.6,45 Z" id="Rectangle-path" fill="#6C63FF"></path>
                <path d="M75.6,45 L75.6,45 C77.9195959,45 79.8,46.8804041 79.8,49.2 L79.8,49.940625 C79.8,52.2602209 77.9195959,54.140625 75.6,54.140625 L75.6,54.140625 C73.2804041,54.140625 71.4,52.2602209 71.4,49.940625 L71.4,49.2 C71.4,46.8804041 73.2804041,45 75.6,45 Z" id="Rectangle-path" fill="#4DA0C0"></path>
                <path d="M45.1703125,68.203125 L54.9296875,68.203125 C57.4538014,68.203125 59.5,70.2493236 59.5,72.7734375 L59.5,72.7734375 C59.5,75.2975514 57.4538014,77.34375 54.9296875,77.34375 L45.1703125,77.34375 C42.6461986,77.34375 40.6,75.2975514 40.6,72.7734375 L40.6,72.7734375 C40.6,70.2493236 42.6461986,68.203125 45.1703125,68.203125 Z" id="Rectangle-path" fill="#000000" opacity="0.1"></path>
                <path d="M75.25,56.25 L75.25,56.25 C77.7628956,56.25 79.8,58.2871044 79.8,60.8 L79.8,72.090625 C79.8,74.6035206 77.7628956,76.640625 75.25,76.640625 L75.25,76.640625 C72.7371044,76.640625 70.7,74.6035206 70.7,72.090625 L70.7,60.8 C70.7,58.2871044 72.7371044,56.25 75.25,56.25 Z" id="Rectangle-path" fill="#000000" opacity="0.1"></path>
                <polygon id="Rectangle-path" fill="#1281AC" points="75.6 26.71875 79.8 26.71875 79.8 27.421875 75.6 27.421875"></polygon>
                <polygon id="Rectangle-path" fill="#1281AC" points="70 26.71875 74.2 26.71875 74.2 27.421875 70 27.421875"></polygon>
                <polygon id="Rectangle-path" fill="#1281AC" points="64.4 26.71875 68.6 26.71875 68.6 27.421875 64.4 27.421875"></polygon>
                <polygon id="Rectangle-path" fill="#1281AC" points="59.5 26.71875 63.7 26.71875 63.7 27.421875 59.5 27.421875"></polygon>
                <path d="M81.2,39.7852891 L80.5057495,40.78125 C80.2859555,40.7673423 80.0692498,40.7337929 79.8603696,40.681335 L79.8,40.6281888 C80.0874743,40.7089711 81.037577,39.375 81.037577,39.375 L81.0677618,39.3930697 C81.1511294,39.6258503 81.2,39.7852891 81.2,39.7852891 Z" id="Shape" fill="#000000" opacity="0.1"></path>
            </g>
        </g>
    </g>
</svg>